ISO-10303-21;
HEADER;
/* Generated by software containing ST-Developer
 * from STEP Tools, Inc. (www.steptools.com) 
 */

FILE_DESCRIPTION(
/* description */ ('KiCad electronic assembly'),
/* implementation_level */ '2;1');

FILE_NAME(
/* name */ 'Pyae''s Alarm Clock (Plate).step',
/* time_stamp */ '2026-09-14T17:45:30-07:00',
/* author */ (''),
/* organization */ (''),
/* preprocessor_version */ 'ST-DEVELOPER v20.2',
/* originating_system */ 'Autodesk Translation Framework v15.15.0.0',
/* authorisation */ '');

FILE_SCHEMA (('AUTOMOTIVE_DESIGN { 1 0 10303 214 3 1 1 }'));
ENDSEC;

DATA;
#10=MECHANICAL_DESIGN_GEOMETRIC_PRESENTATION_REPRESENTATION('',(#13),#1366);
#11=SHAPE_REPRESENTATION_RELATIONSHIP('SRR','None',#1373,#12);
#12=ADVANCED_BREP_SHAPE_REPRESENTATION('',(#14),#1365);
#13=STYLED_ITEM('',(#1382),#14);
#14=MANIFOLD_SOLID_BREP('Body9',#703);
#15=FACE_BOUND('',#107,.T.);
#16=FACE_BOUND('',#109,.T.);
#17=FACE_BOUND('',#110,.T.);
#18=FACE_BOUND('',#111,.T.);
#19=FACE_BOUND('',#112,.T.);
#20=FACE_BOUND('',#113,.T.);
#21=PLANE('',#755);
#22=PLANE('',#771);
#23=PLANE('',#772);
#24=PLANE('',#774);
#25=PLANE('',#775);
#26=PLANE('',#778);
#27=PLANE('',#782);
#28=PLANE('',#784);
#29=PLANE('',#786);
#30=PLANE('',#787);
#31=PLANE('',#788);
#32=PLANE('',#789);
#33=PLANE('',#791);
#34=PLANE('',#792);
#35=(
BOUNDED_SURFACE()
B_SPLINE_SURFACE(2,2,((#1017,#1018,#1019),(#1020,#1021,#1022),(#1023,#1024,
#1025)),.UNSPECIFIED.,.F.,.F.,.F.)
B_SPLINE_SURFACE_WITH_KNOTS((3,3),(3,3),(-1.5707963267949,0.),(-3.14159265358979,
-1.5707963267949),.UNSPECIFIED.)
GEOMETRIC_REPRESENTATION_ITEM()
RATIONAL_B_SPLINE_SURFACE(((1.,0.707106781186548,1.),(0.707106781186546,
0.499999999999999,0.707106781186546),(1.,0.707106781186548,1.)))
REPRESENTATION_ITEM('')
SURFACE()
);
#36=(
BOUNDED_SURFACE()
B_SPLINE_SURFACE(2,2,((#1065,#1066,#1067),(#1068,#1069,#1070),(#1071,#1072,
#1073)),.UNSPECIFIED.,.F.,.F.,.F.)
B_SPLINE_SURFACE_WITH_KNOTS((3,3),(3,3),(-1.5707963267949,0.),(-1.5707963267949,
0.),.UNSPECIFIED.)
GEOMETRIC_REPRESENTATION_ITEM()
RATIONAL_B_SPLINE_SURFACE(((1.,0.707106781186548,1.),(0.707106781186551,
0.500000000000003,0.707106781186551),(1.,0.707106781186548,1.)))
REPRESENTATION_ITEM('')
SURFACE()
);
#37=(
BOUNDED_SURFACE()
B_SPLINE_SURFACE(2,2,((#1112,#1113,#1114),(#1115,#1116,#1117),(#1118,#1119,
#1120)),.UNSPECIFIED.,.F.,.F.,.F.)
B_SPLINE_SURFACE_WITH_KNOTS((3,3),(3,3),(-1.5707963267949,0.),(0.468880525819642,
0.707124681279156),.UNSPECIFIED.)
GEOMETRIC_REPRESENTATION_ITEM()
RATIONAL_B_SPLINE_SURFACE(((1.,0.992913351250796,1.),(0.707106781186549,
0.702095763800099,0.707106781186549),(1.,0.992913351250796,1.)))
REPRESENTATION_ITEM('')
SURFACE()
);
#38=(
BOUNDED_SURFACE()
B_SPLINE_SURFACE(2,2,((#1129,#1130,#1131),(#1132,#1133,#1134),(#1135,#1136,
#1137)),.UNSPECIFIED.,.F.,.F.,.F.)
B_SPLINE_SURFACE_WITH_KNOTS((3,3),(3,3),(-1.5707963267949,0.),(0.,0.468880525819648),
 .UNSPECIFIED.)
GEOMETRIC_REPRESENTATION_ITEM()
RATIONAL_B_SPLINE_SURFACE(((1.,0.97264451983392,1.),(0.707106781186549,
0.6877635356585,0.707106781186549),(1.,0.97264451983392,1.)))
REPRESENTATION_ITEM('')
SURFACE()
);
#39=(
BOUNDED_SURFACE()
B_SPLINE_SURFACE(2,2,((#1145,#1146,#1147),(#1148,#1149,#1150),(#1151,#1152,
#1153)),.UNSPECIFIED.,.F.,.F.,.F.)
B_SPLINE_SURFACE_WITH_KNOTS((3,3),(3,3),(-1.5707963267949,0.),(0.707124681279153,
1.5707963267949),.UNSPECIFIED.)
GEOMETRIC_REPRESENTATION_ITEM()
RATIONAL_B_SPLINE_SURFACE(((1.,0.908198917480272,1.),(0.707106781186549,
0.642193613216583,0.707106781186549),(1.,0.908198917480272,1.)))
REPRESENTATION_ITEM('')
SURFACE()
);
#40=(
BOUNDED_SURFACE()
B_SPLINE_SURFACE(2,2,((#1206,#1207,#1208),(#1209,#1210,#1211),(#1212,#1213,
#1214)),.UNSPECIFIED.,.F.,.F.,.F.)
B_SPLINE_SURFACE_WITH_KNOTS((3,3),(3,3),(-1.5707963267949,0.),(2.43441256901807,
2.67276947408753),.UNSPECIFIED.)
GEOMETRIC_REPRESENTATION_ITEM()
RATIONAL_B_SPLINE_SURFACE(((1.,0.992906650060034,1.),(0.707106781186546,
0.702091025342667,0.707106781186546),(1.,0.992906650060034,1.)))
REPRESENTATION_ITEM('')
SURFACE()
);
#41=(
BOUNDED_SURFACE()
B_SPLINE_SURFACE(2,2,((#1223,#1224,#1225),(#1226,#1227,#1228),(#1229,#1230,
#1231)),.UNSPECIFIED.,.F.,.F.,.F.)
B_SPLINE_SURFACE_WITH_KNOTS((3,3),(3,3),(-1.5707963267949,0.),(1.5707963267948,
2.43441256901808),.UNSPECIFIED.)
GEOMETRIC_REPRESENTATION_ITEM()
RATIONAL_B_SPLINE_SURFACE(((1.,0.908210511345548,1.),(0.707106781186549,
0.64220181131734,0.707106781186549),(1.,0.908210511345548,1.)))
REPRESENTATION_ITEM('')
SURFACE()
);
#42=(
BOUNDED_SURFACE()
B_SPLINE_SURFACE(2,2,((#1241,#1242,#1243),(#1244,#1245,#1246),(#1247,#1248,
#1249)),.UNSPECIFIED.,.F.,.F.,.F.)
B_SPLINE_SURFACE_WITH_KNOTS((3,3),(3,3),(-1.5707963267949,0.),(2.67276947408751,
3.14159265358979),.UNSPECIFIED.)
GEOMETRIC_REPRESENTATION_ITEM()
RATIONAL_B_SPLINE_SURFACE(((1.,0.972651180168616,1.),(0.707106781186549,
0.687768245226328,0.707106781186549),(1.,0.972651180168616,1.)))
REPRESENTATION_ITEM('')
SURFACE()
);
#43=FACE_OUTER_BOUND('',#81,.T.);
#44=FACE_OUTER_BOUND('',#82,.T.);
#45=FACE_OUTER_BOUND('',#83,.T.);
#46=FACE_OUTER_BOUND('',#84,.T.);
#47=FACE_OUTER_BOUND('',#85,.T.);
#48=FACE_OUTER_BOUND('',#86,.T.);
#49=FACE_OUTER_BOUND('',#87,.T.);
#50=FACE_OUTER_BOUND('',#88,.T.);
#51=FACE_OUTER_BOUND('',#89,.T.);
#52=FACE_OUTER_BOUND('',#90,.T.);
#53=FACE_OUTER_BOUND('',#91,.T.);
#54=FACE_OUTER_BOUND('',#92,.T.);
#55=FACE_OUTER_BOUND('',#93,.T.);
#56=FACE_OUTER_BOUND('',#94,.T.);
#57=FACE_OUTER_BOUND('',#95,.T.);
#58=FACE_OUTER_BOUND('',#96,.T.);
#59=FACE_OUTER_BOUND('',#97,.T.);
#60=FACE_OUTER_BOUND('',#98,.T.);
#61=FACE_OUTER_BOUND('',#99,.T.);
#62=FACE_OUTER_BOUND('',#100,.T.);
#63=FACE_OUTER_BOUND('',#101,.T.);
#64=FACE_OUTER_BOUND('',#102,.T.);
#65=FACE_OUTER_BOUND('',#103,.T.);
#66=FACE_OUTER_BOUND('',#104,.T.);
#67=FACE_OUTER_BOUND('',#105,.T.);
#68=FACE_OUTER_BOUND('',#106,.T.);
#69=FACE_OUTER_BOUND('',#108,.T.);
#70=FACE_OUTER_BOUND('',#114,.T.);
#71=FACE_OUTER_BOUND('',#115,.T.);
#72=FACE_OUTER_BOUND('',#116,.T.);
#73=FACE_OUTER_BOUND('',#117,.T.);
#74=FACE_OUTER_BOUND('',#118,.T.);
#75=FACE_OUTER_BOUND('',#119,.T.);
#76=FACE_OUTER_BOUND('',#120,.T.);
#77=FACE_OUTER_BOUND('',#121,.T.);
#78=FACE_OUTER_BOUND('',#122,.T.);
#79=FACE_OUTER_BOUND('',#123,.T.);
#80=FACE_OUTER_BOUND('',#124,.T.);
#81=EDGE_LOOP('',(#441,#442,#443,#444,#445,#446,#447));
#82=EDGE_LOOP('',(#448,#449,#450,#451));
#83=EDGE_LOOP('',(#452,#453,#454,#455,#456,#457,#458,#459));
#84=EDGE_LOOP('',(#460,#461,#462,#463));
#85=EDGE_LOOP('',(#464,#465,#466,#467,#468,#469));
#86=EDGE_LOOP('',(#470,#471,#472,#473));
#87=EDGE_LOOP('',(#474,#475,#476,#477));
#88=EDGE_LOOP('',(#478,#479,#480,#481));
#89=EDGE_LOOP('',(#482,#483,#484,#485));
#90=EDGE_LOOP('',(#486,#487,#488,#489));
#91=EDGE_LOOP('',(#490,#491,#492,#493));
#92=EDGE_LOOP('',(#494,#495,#496,#497));
#93=EDGE_LOOP('',(#498,#499,#500,#501));
#94=EDGE_LOOP('',(#502,#503,#504,#505));
#95=EDGE_LOOP('',(#506,#507,#508,#509));
#96=EDGE_LOOP('',(#510,#511,#512,#513,#514));
#97=EDGE_LOOP('',(#515,#516,#517,#518,#519,#520));
#98=EDGE_LOOP('',(#521,#522,#523,#524,#525,#526));
#99=EDGE_LOOP('',(#527,#528,#529,#530,#531,#532));
#100=EDGE_LOOP('',(#533,#534,#535,#536,#537,#538,#539,#540));
#101=EDGE_LOOP('',(#541,#542,#543,#544,#545,#546,#547,#548));
#102=EDGE_LOOP('',(#549,#550,#551,#552,#553,#554,#555,#556,#557,#558));
#103=EDGE_LOOP('',(#559,#560));
#104=EDGE_LOOP('',(#561,#562));
#105=EDGE_LOOP('',(#563,#564,#565,#566));
#106=EDGE_LOOP('',(#567,#568,#569,#570,#571,#572,#573,#574,#575,#576));
#107=EDGE_LOOP('',(#577,#578,#579,#580));
#108=EDGE_LOOP('',(#581,#582,#583,#584,#585,#586,#587,#588));
#109=EDGE_LOOP('',(#589));
#110=EDGE_LOOP('',(#590));
#111=EDGE_LOOP('',(#591));
#112=EDGE_LOOP('',(#592));
#113=EDGE_LOOP('',(#593,#594,#595,#596));
#114=EDGE_LOOP('',(#597,#598,#599,#600,#601));
#115=EDGE_LOOP('',(#602,#603,#604,#605));
#116=EDGE_LOOP('',(#606,#607,#608,#609));
#117=EDGE_LOOP('',(#610,#611,#612,#613));
#118=EDGE_LOOP('',(#614,#615,#616,#617));
#119=EDGE_LOOP('',(#618,#619,#620,#621));
#120=EDGE_LOOP('',(#622,#623,#624,#625));
#121=EDGE_LOOP('',(#626,#627,#628,#629));
#122=EDGE_LOOP('',(#630,#631,#632,#633,#634,#635,#636,#637,#638,#639));
#123=EDGE_LOOP('',(#640,#641,#642,#643,#644));
#124=EDGE_LOOP('',(#645,#646,#647,#648));
#125=CIRCLE('',#718,2.);
#126=CIRCLE('',#719,1.99999999999999);
#127=CIRCLE('',#720,2.);
#128=CIRCLE('',#721,2.5);
#129=CIRCLE('',#722,0.5);
#130=CIRCLE('',#724,2.);
#131=CIRCLE('',#725,2.);
#132=CIRCLE('',#726,2.5);
#133=CIRCLE('',#727,0.5);
#134=CIRCLE('',#729,2.);
#135=CIRCLE('',#731,2.);
#136=CIRCLE('',#732,1.99999999999999);
#137=CIRCLE('',#733,0.5);
#138=CIRCLE('',#734,2.);
#139=CIRCLE('',#735,2.5);
#140=CIRCLE('',#736,2.5);
#141=CIRCLE('',#737,2.);
#142=CIRCLE('',#738,2.5);
#143=CIRCLE('',#740,2.);
#144=CIRCLE('',#741,2.);
#145=CIRCLE('',#744,2.);
#146=CIRCLE('',#745,1.99999999999998);
#147=CIRCLE('',#746,0.5);
#148=CIRCLE('',#747,2.);
#149=CIRCLE('',#748,2.5);
#150=CIRCLE('',#749,2.5);
#151=CIRCLE('',#750,2.);
#152=CIRCLE('',#751,2.5);
#153=CIRCLE('',#754,2.5);
#154=CIRCLE('',#757,2.5);
#155=CIRCLE('',#759,2.3);
#156=CIRCLE('',#760,2.3);
#157=CIRCLE('',#761,2.3);
#158=CIRCLE('',#762,2.3);
#159=CIRCLE('',#764,2.3);
#160=CIRCLE('',#765,2.3);
#161=CIRCLE('',#766,2.3);
#162=CIRCLE('',#768,2.3);
#163=CIRCLE('',#769,2.3);
#164=CIRCLE('',#770,2.3);
#165=CIRCLE('',#773,2.3);
#166=CIRCLE('',#776,2.3);
#167=CIRCLE('',#777,2.3);
#168=CIRCLE('',#779,2.5);
#169=CIRCLE('',#780,2.5);
#170=CIRCLE('',#781,2.3);
#171=LINE('',#1009,#215);
#172=LINE('',#1013,#216);
#173=LINE('',#1016,#217);
#174=LINE('',#1046,#218);
#175=LINE('',#1049,#219);
#176=LINE('',#1051,#220);
#177=LINE('',#1064,#221);
#178=LINE('',#1094,#222);
#179=LINE('',#1097,#223);
#180=LINE('',#1098,#224);
#181=LINE('',#1111,#225);
#182=LINE('',#1171,#226);
#183=LINE('',#1174,#227);
#184=LINE('',#1188,#228);
#185=LINE('',#1205,#229);
#186=LINE('',#1272,#230);
#187=LINE('',#1275,#231);
#188=LINE('',#1278,#232);
#189=LINE('',#1281,#233);
#190=LINE('',#1282,#234);
#191=LINE('',#1285,#235);
#192=LINE('',#1291,#236);
#193=LINE('',#1298,#237);
#194=LINE('',#1305,#238);
#195=LINE('',#1317,#239);
#196=LINE('',#1319,#240);
#197=LINE('',#1321,#241);
#198=LINE('',#1322,#242);
#199=LINE('',#1325,#243);
#200=LINE('',#1329,#244);
#201=LINE('',#1332,#245);
#202=LINE('',#1337,#246);
#203=LINE('',#1339,#247);
#204=LINE('',#1341,#248);
#205=LINE('',#1342,#249);
#206=LINE('',#1344,#250);
#207=LINE('',#1346,#251);
#208=LINE('',#1348,#252);
#209=LINE('',#1350,#253);
#210=LINE('',#1352,#254);
#211=LINE('',#1353,#255);
#212=LINE('',#1355,#256);
#213=LINE('',#1357,#257);
#214=LINE('',#1360,#258);
#215=VECTOR('',#797,10.);
#216=VECTOR('',#800,10.);
#217=VECTOR('',#803,10.);
#218=VECTOR('',#812,10.);
#219=VECTOR('',#815,10.);
#220=VECTOR('',#816,10.);
#221=VECTOR('',#817,10.);
#222=VECTOR('',#826,10.);
#223=VECTOR('',#829,10.);
#224=VECTOR('',#830,10.);
#225=VECTOR('',#835,10.);
#226=VECTOR('',#854,10.);
#227=VECTOR('',#857,10.);
#228=VECTOR('',#860,10.);
#229=VECTOR('',#865,10.);
#230=VECTOR('',#882,10.);
#231=VECTOR('',#885,10.);
#232=VECTOR('',#888,10.);
#233=VECTOR('',#891,10.);
#234=VECTOR('',#892,10.);
#235=VECTOR('',#895,10.);
#236=VECTOR('',#902,2.3);
#237=VECTOR('',#913,2.3);
#238=VECTOR('',#924,2.3);
#239=VECTOR('',#941,10.);
#240=VECTOR('',#942,10.);
#241=VECTOR('',#943,10.);
#242=VECTOR('',#944,10.);
#243=VECTOR('',#947,10.);
#244=VECTOR('',#950,10.);
#245=VECTOR('',#953,10.);
#246=VECTOR('',#956,10.);
#247=VECTOR('',#957,10.);
#248=VECTOR('',#958,10.);
#249=VECTOR('',#959,10.);
#250=VECTOR('',#962,10.);
#251=VECTOR('',#965,10.);
#252=VECTOR('',#968,10.);
#253=VECTOR('',#971,10.);
#254=VECTOR('',#974,10.);
#255=VECTOR('',#975,10.);
#256=VECTOR('',#978,10.);
#257=VECTOR('',#981,10.);
#258=VECTOR('',#986,2.3);
#259=B_SPLINE_CURVE_WITH_KNOTS('',3,(#995,#996,#997,#998,#999,#1000),
 .UNSPECIFIED.,.F.,.F.,(4,2,4),(-0.115295022300027,-0.101996928552025,0.),
 .UNSPECIFIED.);
#260=B_SPLINE_CURVE_WITH_KNOTS('',3,(#1002,#1003,#1004,#1005,#1006,#1007),
 .UNSPECIFIED.,.F.,.F.,(4,2,4),(0.,0.101996928552025,0.115295022300028),
 .UNSPECIFIED.);
#261=B_SPLINE_CURVE_WITH_KNOTS('',3,(#1034,#1035,#1036,#1037,#1038,#1039,
#1040,#1041,#1042,#1043,#1044),.UNSPECIFIED.,.F.,.F.,(4,2,3,2,4),(-0.115295022300028,
-0.101996928552026,0.,0.101996928552026,0.11529502230003),.UNSPECIFIED.);
#262=B_SPLINE_CURVE_WITH_KNOTS('',3,(#1053,#1054,#1055,#1056,#1057,#1058,
#1059,#1060,#1061,#1062,#1063),.UNSPECIFIED.,.F.,.F.,(4,2,3,2,4),(-0.115295022300023,
-0.101996928552025,0.,0.101996928552025,0.115295022300027),
 .UNSPECIFIED.);
#263=B_SPLINE_CURVE_WITH_KNOTS('',3,(#1082,#1083,#1084,#1085,#1086,#1087,
#1088,#1089,#1090,#1091,#1092),.UNSPECIFIED.,.F.,.F.,(4,2,3,2,4),(-0.115295022300033,
-0.101996928552025,0.,0.101996928552025,0.115295022300032),
 .UNSPECIFIED.);
#264=B_SPLINE_CURVE_WITH_KNOTS('',3,(#1101,#1102,#1103,#1104,#1105,#1106,
#1107,#1108),.UNSPECIFIED.,.F.,.F.,(4,2,2,4),(0.801360913313826,0.814659007062604,
0.916655935614709,1.01718051201911),.UNSPECIFIED.);
#265=B_SPLINE_CURVE_WITH_KNOTS('',3,(#1138,#1139,#1140,#1141,#1142,#1143),
 .UNSPECIFIED.,.F.,.F.,(4,2,4),(0.456301584479726,0.469753767052416,0.479758295871783),
 .UNSPECIFIED.);
#266=B_SPLINE_CURVE_WITH_KNOTS('',3,(#1155,#1156,#1157,#1158,#1159,#1160,
#1161,#1162),.UNSPECIFIED.,.F.,.F.,(4,2,2,4),(0.490533020700527,0.503107565257357,
0.533866439501507,0.542066663726723),.UNSPECIFIED.);
#267=B_SPLINE_CURVE_WITH_KNOTS('',3,(#1176,#1177,#1178,#1179,#1180,#1181,
#1182,#1183,#1184,#1185,#1186,#1187),.UNSPECIFIED.,.F.,.F.,(4,2,2,2,2,4),
(0.864762078310759,0.91491831351023,1.02531885656941,1.1357193996286,1.19091967115819,
1.21992287462299),.UNSPECIFIED.);
#268=B_SPLINE_CURVE_WITH_KNOTS('',3,(#1191,#1192,#1193,#1194,#1195,#1196,
#1197,#1198,#1199,#1200,#1201,#1202),.UNSPECIFIED.,.F.,.F.,(4,2,2,2,2,4),
(0.830714838516097,0.85971804198123,0.914918313510845,1.02531885657007,
1.1357193996293,1.18587604449179),.UNSPECIFIED.);
#269=B_SPLINE_CURVE_WITH_KNOTS('',3,(#1232,#1233,#1234,#1235,#1236,#1237,
#1238,#1239),.UNSPECIFIED.,.F.,.F.,(4,2,2,4),(0.428297281842406,0.439001736853427,
0.469753767116302,0.479755756044932),.UNSPECIFIED.);
#270=B_SPLINE_CURVE_WITH_KNOTS('',3,(#1251,#1252,#1253,#1254,#1255,#1256),
 .UNSPECIFIED.,.F.,.F.,(4,2,4),(0.490535564969002,0.503107525963226,0.514020358188717),
 .UNSPECIFIED.);
#271=B_SPLINE_CURVE_WITH_KNOTS('',3,(#1262,#1263,#1264,#1265),
 .UNSPECIFIED.,.F.,.F.,(4,4),(0.816130689683113,0.916655260464115),
 .UNSPECIFIED.);
#272=B_SPLINE_CURVE_WITH_KNOTS('',3,(#1266,#1267,#1268,#1269,#1270,#1271),
 .UNSPECIFIED.,.F.,.F.,(4,2,4),(0.916655260464115,1.01865213113566,1.03194965988168),
 .UNSPECIFIED.);
#273=VERTEX_POINT('',#993);
#274=VERTEX_POINT('',#994);
#275=VERTEX_POINT('',#1001);
#276=VERTEX_POINT('',#1008);
#277=VERTEX_POINT('',#1010);
#278=VERTEX_POINT('',#1012);
#279=VERTEX_POINT('',#1014);
#280=VERTEX_POINT('',#1026);
#281=VERTEX_POINT('',#1027);
#282=VERTEX_POINT('',#1032);
#283=VERTEX_POINT('',#1033);
#284=VERTEX_POINT('',#1045);
#285=VERTEX_POINT('',#1047);
#286=VERTEX_POINT('',#1050);
#287=VERTEX_POINT('',#1052);
#288=VERTEX_POINT('',#1074);
#289=VERTEX_POINT('',#1075);
#290=VERTEX_POINT('',#1080);
#291=VERTEX_POINT('',#1081);
#292=VERTEX_POINT('',#1093);
#293=VERTEX_POINT('',#1095);
#294=VERTEX_POINT('',#1100);
#295=VERTEX_POINT('',#1109);
#296=VERTEX_POINT('',#1121);
#297=VERTEX_POINT('',#1122);
#298=VERTEX_POINT('',#1124);
#299=VERTEX_POINT('',#1126);
#300=VERTEX_POINT('',#1154);
#301=VERTEX_POINT('',#1163);
#302=VERTEX_POINT('',#1167);
#303=VERTEX_POINT('',#1168);
#304=VERTEX_POINT('',#1170);
#305=VERTEX_POINT('',#1172);
#306=VERTEX_POINT('',#1190);
#307=VERTEX_POINT('',#1203);
#308=VERTEX_POINT('',#1215);
#309=VERTEX_POINT('',#1216);
#310=VERTEX_POINT('',#1218);
#311=VERTEX_POINT('',#1220);
#312=VERTEX_POINT('',#1250);
#313=VERTEX_POINT('',#1257);
#314=VERTEX_POINT('',#1261);
#315=VERTEX_POINT('',#1274);
#316=VERTEX_POINT('',#1276);
#317=VERTEX_POINT('',#1280);
#318=VERTEX_POINT('',#1284);
#319=VERTEX_POINT('',#1288);
#320=VERTEX_POINT('',#1290);
#321=VERTEX_POINT('',#1297);
#322=VERTEX_POINT('',#1304);
#323=VERTEX_POINT('',#1312);
#324=VERTEX_POINT('',#1315);
#325=VERTEX_POINT('',#1316);
#326=VERTEX_POINT('',#1318);
#327=VERTEX_POINT('',#1320);
#328=VERTEX_POINT('',#1324);
#329=VERTEX_POINT('',#1326);
#330=VERTEX_POINT('',#1328);
#331=VERTEX_POINT('',#1330);
#332=VERTEX_POINT('',#1333);
#333=VERTEX_POINT('',#1335);
#334=VERTEX_POINT('',#1336);
#335=VERTEX_POINT('',#1338);
#336=VERTEX_POINT('',#1340);
#337=EDGE_CURVE('',#273,#274,#259,.T.);
#338=EDGE_CURVE('',#274,#275,#260,.T.);
#339=EDGE_CURVE('',#275,#276,#171,.T.);
#340=EDGE_CURVE('',#276,#277,#125,.T.);
#341=EDGE_CURVE('',#277,#278,#172,.T.);
#342=EDGE_CURVE('',#278,#279,#126,.T.);
#343=EDGE_CURVE('',#279,#273,#173,.T.);
#344=EDGE_CURVE('',#280,#281,#127,.T.);
#345=EDGE_CURVE('',#281,#277,#128,.T.);
#346=EDGE_CURVE('',#276,#280,#129,.T.);
#347=EDGE_CURVE('',#282,#283,#261,.T.);
#348=EDGE_CURVE('',#283,#284,#174,.T.);
#349=EDGE_CURVE('',#284,#285,#130,.T.);
#350=EDGE_CURVE('',#285,#281,#175,.T.);
#351=EDGE_CURVE('',#280,#286,#176,.T.);
#352=EDGE_CURVE('',#286,#287,#262,.T.);
#353=EDGE_CURVE('',#287,#282,#177,.T.);
#354=EDGE_CURVE('',#288,#289,#131,.T.);
#355=EDGE_CURVE('',#289,#285,#132,.T.);
#356=EDGE_CURVE('',#284,#288,#133,.T.);
#357=EDGE_CURVE('',#290,#291,#263,.T.);
#358=EDGE_CURVE('',#291,#292,#178,.T.);
#359=EDGE_CURVE('',#292,#293,#134,.T.);
#360=EDGE_CURVE('',#293,#289,#179,.T.);
#361=EDGE_CURVE('',#288,#290,#180,.T.);
#362=EDGE_CURVE('',#292,#294,#264,.T.);
#363=EDGE_CURVE('',#294,#295,#135,.T.);
#364=EDGE_CURVE('',#295,#293,#181,.T.);
#365=EDGE_CURVE('',#296,#297,#136,.T.);
#366=EDGE_CURVE('',#297,#298,#137,.T.);
#367=EDGE_CURVE('',#298,#299,#138,.T.);
#368=EDGE_CURVE('',#299,#296,#139,.T.);
#369=EDGE_CURVE('',#294,#297,#265,.T.);
#370=EDGE_CURVE('',#296,#295,#140,.T.);
#371=EDGE_CURVE('',#298,#300,#266,.T.);
#372=EDGE_CURVE('',#300,#301,#141,.T.);
#373=EDGE_CURVE('',#301,#299,#142,.T.);
#374=EDGE_CURVE('',#302,#303,#143,.T.);
#375=EDGE_CURVE('',#303,#304,#182,.T.);
#376=EDGE_CURVE('',#304,#305,#144,.T.);
#377=EDGE_CURVE('',#305,#302,#183,.T.);
#378=EDGE_CURVE('',#300,#305,#267,.T.);
#379=EDGE_CURVE('',#304,#301,#184,.T.);
#380=EDGE_CURVE('',#302,#306,#268,.T.);
#381=EDGE_CURVE('',#306,#307,#145,.T.);
#382=EDGE_CURVE('',#307,#303,#185,.T.);
#383=EDGE_CURVE('',#308,#309,#146,.T.);
#384=EDGE_CURVE('',#309,#310,#147,.T.);
#385=EDGE_CURVE('',#310,#311,#148,.T.);
#386=EDGE_CURVE('',#311,#308,#149,.T.);
#387=EDGE_CURVE('',#306,#309,#269,.T.);
#388=EDGE_CURVE('',#308,#307,#150,.T.);
#389=EDGE_CURVE('',#310,#312,#270,.T.);
#390=EDGE_CURVE('',#312,#313,#151,.T.);
#391=EDGE_CURVE('',#313,#311,#152,.T.);
#392=EDGE_CURVE('',#312,#314,#271,.T.);
#393=EDGE_CURVE('',#314,#279,#272,.T.);
#394=EDGE_CURVE('',#278,#313,#186,.T.);
#395=EDGE_CURVE('',#301,#315,#187,.T.);
#396=EDGE_CURVE('',#315,#316,#153,.T.);
#397=EDGE_CURVE('',#316,#295,#188,.T.);
#398=EDGE_CURVE('',#317,#307,#189,.T.);
#399=EDGE_CURVE('',#315,#317,#190,.T.);
#400=EDGE_CURVE('',#313,#318,#191,.T.);
#401=EDGE_CURVE('',#318,#317,#154,.T.);
#402=EDGE_CURVE('',#319,#282,#155,.T.);
#403=EDGE_CURVE('',#319,#320,#192,.T.);
#404=EDGE_CURVE('',#320,#320,#156,.T.);
#405=EDGE_CURVE('',#291,#319,#157,.T.);
#406=EDGE_CURVE('',#283,#290,#158,.T.);
#407=EDGE_CURVE('',#275,#286,#159,.T.);
#408=EDGE_CURVE('',#274,#321,#193,.T.);
#409=EDGE_CURVE('',#321,#321,#160,.T.);
#410=EDGE_CURVE('',#287,#273,#161,.T.);
#411=EDGE_CURVE('',#309,#310,#162,.T.);
#412=EDGE_CURVE('',#279,#302,#163,.T.);
#413=EDGE_CURVE('',#314,#322,#194,.T.);
#414=EDGE_CURVE('',#322,#322,#164,.T.);
#415=EDGE_CURVE('',#297,#298,#165,.T.);
#416=EDGE_CURVE('',#305,#323,#166,.T.);
#417=EDGE_CURVE('',#323,#292,#167,.T.);
#418=EDGE_CURVE('',#324,#325,#195,.T.);
#419=EDGE_CURVE('',#325,#326,#196,.T.);
#420=EDGE_CURVE('',#326,#327,#197,.T.);
#421=EDGE_CURVE('',#327,#324,#198,.T.);
#422=EDGE_CURVE('',#318,#328,#199,.T.);
#423=EDGE_CURVE('',#329,#328,#168,.T.);
#424=EDGE_CURVE('',#329,#330,#200,.T.);
#425=EDGE_CURVE('',#331,#330,#169,.T.);
#426=EDGE_CURVE('',#331,#316,#201,.T.);
#427=EDGE_CURVE('',#332,#332,#170,.T.);
#428=EDGE_CURVE('',#333,#334,#202,.T.);
#429=EDGE_CURVE('',#335,#333,#203,.T.);
#430=EDGE_CURVE('',#336,#335,#204,.T.);
#431=EDGE_CURVE('',#334,#336,#205,.T.);
#432=EDGE_CURVE('',#289,#331,#206,.T.);
#433=EDGE_CURVE('',#330,#285,#207,.T.);
#434=EDGE_CURVE('',#281,#329,#208,.T.);
#435=EDGE_CURVE('',#328,#277,#209,.T.);
#436=EDGE_CURVE('',#333,#324,#210,.T.);
#437=EDGE_CURVE('',#335,#327,#211,.T.);
#438=EDGE_CURVE('',#336,#326,#212,.T.);
#439=EDGE_CURVE('',#334,#325,#213,.T.);
#440=EDGE_CURVE('',#323,#332,#214,.T.);
#441=ORIENTED_EDGE('',*,*,#337,.T.);
#442=ORIENTED_EDGE('',*,*,#338,.T.);
#443=ORIENTED_EDGE('',*,*,#339,.T.);
#444=ORIENTED_EDGE('',*,*,#340,.T.);
#445=ORIENTED_EDGE('',*,*,#341,.T.);
#446=ORIENTED_EDGE('',*,*,#342,.T.);
#447=ORIENTED_EDGE('',*,*,#343,.T.);
#448=ORIENTED_EDGE('',*,*,#344,.T.);
#449=ORIENTED_EDGE('',*,*,#345,.T.);
#450=ORIENTED_EDGE('',*,*,#340,.F.);
#451=ORIENTED_EDGE('',*,*,#346,.T.);
#452=ORIENTED_EDGE('',*,*,#347,.T.);
#453=ORIENTED_EDGE('',*,*,#348,.T.);
#454=ORIENTED_EDGE('',*,*,#349,.T.);
#455=ORIENTED_EDGE('',*,*,#350,.T.);
#456=ORIENTED_EDGE('',*,*,#344,.F.);
#457=ORIENTED_EDGE('',*,*,#351,.T.);
#458=ORIENTED_EDGE('',*,*,#352,.T.);
#459=ORIENTED_EDGE('',*,*,#353,.T.);
#460=ORIENTED_EDGE('',*,*,#354,.T.);
#461=ORIENTED_EDGE('',*,*,#355,.T.);
#462=ORIENTED_EDGE('',*,*,#349,.F.);
#463=ORIENTED_EDGE('',*,*,#356,.T.);
#464=ORIENTED_EDGE('',*,*,#357,.T.);
#465=ORIENTED_EDGE('',*,*,#358,.T.);
#466=ORIENTED_EDGE('',*,*,#359,.T.);
#467=ORIENTED_EDGE('',*,*,#360,.T.);
#468=ORIENTED_EDGE('',*,*,#354,.F.);
#469=ORIENTED_EDGE('',*,*,#361,.T.);
#470=ORIENTED_EDGE('',*,*,#362,.T.);
#471=ORIENTED_EDGE('',*,*,#363,.T.);
#472=ORIENTED_EDGE('',*,*,#364,.T.);
#473=ORIENTED_EDGE('',*,*,#359,.F.);
#474=ORIENTED_EDGE('',*,*,#365,.T.);
#475=ORIENTED_EDGE('',*,*,#366,.T.);
#476=ORIENTED_EDGE('',*,*,#367,.T.);
#477=ORIENTED_EDGE('',*,*,#368,.T.);
#478=ORIENTED_EDGE('',*,*,#369,.T.);
#479=ORIENTED_EDGE('',*,*,#365,.F.);
#480=ORIENTED_EDGE('',*,*,#370,.T.);
#481=ORIENTED_EDGE('',*,*,#363,.F.);
#482=ORIENTED_EDGE('',*,*,#371,.T.);
#483=ORIENTED_EDGE('',*,*,#372,.T.);
#484=ORIENTED_EDGE('',*,*,#373,.T.);
#485=ORIENTED_EDGE('',*,*,#367,.F.);
#486=ORIENTED_EDGE('',*,*,#374,.T.);
#487=ORIENTED_EDGE('',*,*,#375,.T.);
#488=ORIENTED_EDGE('',*,*,#376,.T.);
#489=ORIENTED_EDGE('',*,*,#377,.T.);
#490=ORIENTED_EDGE('',*,*,#378,.T.);
#491=ORIENTED_EDGE('',*,*,#376,.F.);
#492=ORIENTED_EDGE('',*,*,#379,.T.);
#493=ORIENTED_EDGE('',*,*,#372,.F.);
#494=ORIENTED_EDGE('',*,*,#380,.T.);
#495=ORIENTED_EDGE('',*,*,#381,.T.);
#496=ORIENTED_EDGE('',*,*,#382,.T.);
#497=ORIENTED_EDGE('',*,*,#374,.F.);
#498=ORIENTED_EDGE('',*,*,#383,.T.);
#499=ORIENTED_EDGE('',*,*,#384,.T.);
#500=ORIENTED_EDGE('',*,*,#385,.T.);
#501=ORIENTED_EDGE('',*,*,#386,.T.);
#502=ORIENTED_EDGE('',*,*,#387,.T.);
#503=ORIENTED_EDGE('',*,*,#383,.F.);
#504=ORIENTED_EDGE('',*,*,#388,.T.);
#505=ORIENTED_EDGE('',*,*,#381,.F.);
#506=ORIENTED_EDGE('',*,*,#389,.T.);
#507=ORIENTED_EDGE('',*,*,#390,.T.);
#508=ORIENTED_EDGE('',*,*,#391,.T.);
#509=ORIENTED_EDGE('',*,*,#385,.F.);
#510=ORIENTED_EDGE('',*,*,#392,.T.);
#511=ORIENTED_EDGE('',*,*,#393,.T.);
#512=ORIENTED_EDGE('',*,*,#342,.F.);
#513=ORIENTED_EDGE('',*,*,#394,.T.);
#514=ORIENTED_EDGE('',*,*,#390,.F.);
#515=ORIENTED_EDGE('',*,*,#370,.F.);
#516=ORIENTED_EDGE('',*,*,#368,.F.);
#517=ORIENTED_EDGE('',*,*,#373,.F.);
#518=ORIENTED_EDGE('',*,*,#395,.T.);
#519=ORIENTED_EDGE('',*,*,#396,.T.);
#520=ORIENTED_EDGE('',*,*,#397,.T.);
#521=ORIENTED_EDGE('',*,*,#379,.F.);
#522=ORIENTED_EDGE('',*,*,#375,.F.);
#523=ORIENTED_EDGE('',*,*,#382,.F.);
#524=ORIENTED_EDGE('',*,*,#398,.F.);
#525=ORIENTED_EDGE('',*,*,#399,.F.);
#526=ORIENTED_EDGE('',*,*,#395,.F.);
#527=ORIENTED_EDGE('',*,*,#388,.F.);
#528=ORIENTED_EDGE('',*,*,#386,.F.);
#529=ORIENTED_EDGE('',*,*,#391,.F.);
#530=ORIENTED_EDGE('',*,*,#400,.T.);
#531=ORIENTED_EDGE('',*,*,#401,.T.);
#532=ORIENTED_EDGE('',*,*,#398,.T.);
#533=ORIENTED_EDGE('',*,*,#347,.F.);
#534=ORIENTED_EDGE('',*,*,#402,.F.);
#535=ORIENTED_EDGE('',*,*,#403,.T.);
#536=ORIENTED_EDGE('',*,*,#404,.T.);
#537=ORIENTED_EDGE('',*,*,#403,.F.);
#538=ORIENTED_EDGE('',*,*,#405,.F.);
#539=ORIENTED_EDGE('',*,*,#357,.F.);
#540=ORIENTED_EDGE('',*,*,#406,.F.);
#541=ORIENTED_EDGE('',*,*,#352,.F.);
#542=ORIENTED_EDGE('',*,*,#407,.F.);
#543=ORIENTED_EDGE('',*,*,#338,.F.);
#544=ORIENTED_EDGE('',*,*,#408,.T.);
#545=ORIENTED_EDGE('',*,*,#409,.T.);
#546=ORIENTED_EDGE('',*,*,#408,.F.);
#547=ORIENTED_EDGE('',*,*,#337,.F.);
#548=ORIENTED_EDGE('',*,*,#410,.F.);
#549=ORIENTED_EDGE('',*,*,#392,.F.);
#550=ORIENTED_EDGE('',*,*,#389,.F.);
#551=ORIENTED_EDGE('',*,*,#411,.F.);
#552=ORIENTED_EDGE('',*,*,#387,.F.);
#553=ORIENTED_EDGE('',*,*,#380,.F.);
#554=ORIENTED_EDGE('',*,*,#412,.F.);
#555=ORIENTED_EDGE('',*,*,#393,.F.);
#556=ORIENTED_EDGE('',*,*,#413,.T.);
#557=ORIENTED_EDGE('',*,*,#414,.T.);
#558=ORIENTED_EDGE('',*,*,#413,.F.);
#559=ORIENTED_EDGE('',*,*,#384,.F.);
#560=ORIENTED_EDGE('',*,*,#411,.T.);
#561=ORIENTED_EDGE('',*,*,#366,.F.);
#562=ORIENTED_EDGE('',*,*,#415,.T.);
#563=ORIENTED_EDGE('',*,*,#351,.F.);
#564=ORIENTED_EDGE('',*,*,#346,.F.);
#565=ORIENTED_EDGE('',*,*,#339,.F.);
#566=ORIENTED_EDGE('',*,*,#407,.T.);
#567=ORIENTED_EDGE('',*,*,#353,.F.);
#568=ORIENTED_EDGE('',*,*,#410,.T.);
#569=ORIENTED_EDGE('',*,*,#343,.F.);
#570=ORIENTED_EDGE('',*,*,#412,.T.);
#571=ORIENTED_EDGE('',*,*,#377,.F.);
#572=ORIENTED_EDGE('',*,*,#416,.T.);
#573=ORIENTED_EDGE('',*,*,#417,.T.);
#574=ORIENTED_EDGE('',*,*,#358,.F.);
#575=ORIENTED_EDGE('',*,*,#405,.T.);
#576=ORIENTED_EDGE('',*,*,#402,.T.);
#577=ORIENTED_EDGE('',*,*,#418,.T.);
#578=ORIENTED_EDGE('',*,*,#419,.T.);
#579=ORIENTED_EDGE('',*,*,#420,.T.);
#580=ORIENTED_EDGE('',*,*,#421,.T.);
#581=ORIENTED_EDGE('',*,*,#401,.F.);
#582=ORIENTED_EDGE('',*,*,#422,.T.);
#583=ORIENTED_EDGE('',*,*,#423,.F.);
#584=ORIENTED_EDGE('',*,*,#424,.T.);
#585=ORIENTED_EDGE('',*,*,#425,.F.);
#586=ORIENTED_EDGE('',*,*,#426,.T.);
#587=ORIENTED_EDGE('',*,*,#396,.F.);
#588=ORIENTED_EDGE('',*,*,#399,.T.);
#589=ORIENTED_EDGE('',*,*,#414,.F.);
#590=ORIENTED_EDGE('',*,*,#409,.F.);
#591=ORIENTED_EDGE('',*,*,#404,.F.);
#592=ORIENTED_EDGE('',*,*,#427,.F.);
#593=ORIENTED_EDGE('',*,*,#428,.F.);
#594=ORIENTED_EDGE('',*,*,#429,.F.);
#595=ORIENTED_EDGE('',*,*,#430,.F.);
#596=ORIENTED_EDGE('',*,*,#431,.F.);
#597=ORIENTED_EDGE('',*,*,#364,.F.);
#598=ORIENTED_EDGE('',*,*,#397,.F.);
#599=ORIENTED_EDGE('',*,*,#426,.F.);
#600=ORIENTED_EDGE('',*,*,#432,.F.);
#601=ORIENTED_EDGE('',*,*,#360,.F.);
#602=ORIENTED_EDGE('',*,*,#355,.F.);
#603=ORIENTED_EDGE('',*,*,#432,.T.);
#604=ORIENTED_EDGE('',*,*,#425,.T.);
#605=ORIENTED_EDGE('',*,*,#433,.T.);
#606=ORIENTED_EDGE('',*,*,#350,.F.);
#607=ORIENTED_EDGE('',*,*,#433,.F.);
#608=ORIENTED_EDGE('',*,*,#424,.F.);
#609=ORIENTED_EDGE('',*,*,#434,.F.);
#610=ORIENTED_EDGE('',*,*,#345,.F.);
#611=ORIENTED_EDGE('',*,*,#434,.T.);
#612=ORIENTED_EDGE('',*,*,#423,.T.);
#613=ORIENTED_EDGE('',*,*,#435,.T.);
#614=ORIENTED_EDGE('',*,*,#429,.T.);
#615=ORIENTED_EDGE('',*,*,#436,.T.);
#616=ORIENTED_EDGE('',*,*,#421,.F.);
#617=ORIENTED_EDGE('',*,*,#437,.F.);
#618=ORIENTED_EDGE('',*,*,#430,.T.);
#619=ORIENTED_EDGE('',*,*,#437,.T.);
#620=ORIENTED_EDGE('',*,*,#420,.F.);
#621=ORIENTED_EDGE('',*,*,#438,.F.);
#622=ORIENTED_EDGE('',*,*,#431,.T.);
#623=ORIENTED_EDGE('',*,*,#438,.T.);
#624=ORIENTED_EDGE('',*,*,#419,.F.);
#625=ORIENTED_EDGE('',*,*,#439,.F.);
#626=ORIENTED_EDGE('',*,*,#428,.T.);
#627=ORIENTED_EDGE('',*,*,#439,.T.);
#628=ORIENTED_EDGE('',*,*,#418,.F.);
#629=ORIENTED_EDGE('',*,*,#436,.F.);
#630=ORIENTED_EDGE('',*,*,#362,.F.);
#631=ORIENTED_EDGE('',*,*,#417,.F.);
#632=ORIENTED_EDGE('',*,*,#440,.T.);
#633=ORIENTED_EDGE('',*,*,#427,.T.);
#634=ORIENTED_EDGE('',*,*,#440,.F.);
#635=ORIENTED_EDGE('',*,*,#416,.F.);
#636=ORIENTED_EDGE('',*,*,#378,.F.);
#637=ORIENTED_EDGE('',*,*,#371,.F.);
#638=ORIENTED_EDGE('',*,*,#415,.F.);
#639=ORIENTED_EDGE('',*,*,#369,.F.);
#640=ORIENTED_EDGE('',*,*,#341,.F.);
#641=ORIENTED_EDGE('',*,*,#435,.F.);
#642=ORIENTED_EDGE('',*,*,#422,.F.);
#643=ORIENTED_EDGE('',*,*,#400,.F.);
#644=ORIENTED_EDGE('',*,*,#394,.F.);
#645=ORIENTED_EDGE('',*,*,#348,.F.);
#646=ORIENTED_EDGE('',*,*,#406,.T.);
#647=ORIENTED_EDGE('',*,*,#361,.F.);
#648=ORIENTED_EDGE('',*,*,#356,.F.);
#649=CYLINDRICAL_SURFACE('',#717,2.);
#650=CYLINDRICAL_SURFACE('',#723,2.);
#651=CYLINDRICAL_SURFACE('',#728,2.);
#652=CYLINDRICAL_SURFACE('',#730,2.);
#653=CYLINDRICAL_SURFACE('',#739,2.);
#654=CYLINDRICAL_SURFACE('',#742,2.);
#655=CYLINDRICAL_SURFACE('',#743,2.);
#656=CYLINDRICAL_SURFACE('',#752,2.);
#657=CYLINDRICAL_SURFACE('',#753,2.5);
#658=CYLINDRICAL_SURFACE('',#756,2.5);
#659=CYLINDRICAL_SURFACE('',#758,2.3);
#660=CYLINDRICAL_SURFACE('',#763,2.3);
#661=CYLINDRICAL_SURFACE('',#767,2.3);
#662=CYLINDRICAL_SURFACE('',#783,2.5);
#663=CYLINDRICAL_SURFACE('',#785,2.5);
#664=CYLINDRICAL_SURFACE('',#790,2.3);
#665=ADVANCED_FACE('',(#43),#649,.T.);
#666=ADVANCED_FACE('',(#44),#35,.F.);
#667=ADVANCED_FACE('',(#45),#650,.T.);
#668=ADVANCED_FACE('',(#46),#36,.F.);
#669=ADVANCED_FACE('',(#47),#651,.T.);
#670=ADVANCED_FACE('',(#48),#652,.T.);
#671=ADVANCED_FACE('',(#49),#37,.F.);
#672=ADVANCED_FACE('',(#50),#38,.F.);
#673=ADVANCED_FACE('',(#51),#39,.F.);
#674=ADVANCED_FACE('',(#52),#653,.T.);
#675=ADVANCED_FACE('',(#53),#654,.T.);
#676=ADVANCED_FACE('',(#54),#655,.T.);
#677=ADVANCED_FACE('',(#55),#40,.F.);
#678=ADVANCED_FACE('',(#56),#41,.F.);
#679=ADVANCED_FACE('',(#57),#42,.F.);
#680=ADVANCED_FACE('',(#58),#656,.T.);
#681=ADVANCED_FACE('',(#59),#657,.T.);
#682=ADVANCED_FACE('',(#60),#21,.T.);
#683=ADVANCED_FACE('',(#61),#658,.T.);
#684=ADVANCED_FACE('',(#62),#659,.F.);
#685=ADVANCED_FACE('',(#63),#660,.F.);
#686=ADVANCED_FACE('',(#64),#661,.F.);
#687=ADVANCED_FACE('',(#65),#22,.T.);
#688=ADVANCED_FACE('',(#66),#23,.T.);
#689=ADVANCED_FACE('',(#67),#24,.T.);
#690=ADVANCED_FACE('',(#68,#15),#25,.T.);
#691=ADVANCED_FACE('',(#69,#16,#17,#18,#19,#20),#26,.F.);
#692=ADVANCED_FACE('',(#70),#27,.T.);
#693=ADVANCED_FACE('',(#71),#662,.T.);
#694=ADVANCED_FACE('',(#72),#28,.T.);
#695=ADVANCED_FACE('',(#73),#663,.T.);
#696=ADVANCED_FACE('',(#74),#29,.T.);
#697=ADVANCED_FACE('',(#75),#30,.T.);
#698=ADVANCED_FACE('',(#76),#31,.T.);
#699=ADVANCED_FACE('',(#77),#32,.T.);
#700=ADVANCED_FACE('',(#78),#664,.F.);
#701=ADVANCED_FACE('',(#79),#33,.T.);
#702=ADVANCED_FACE('',(#80),#34,.T.);
#703=CLOSED_SHELL('',(#665,#666,#667,#668,#669,#670,#671,#672,#673,#674,
#675,#676,#677,#678,#679,#680,#681,#682,#683,#684,#685,#686,#687,#688,#689,
#690,#691,#692,#693,#694,#695,#696,#697,#698,#699,#700,#701,#702));
#704=DERIVED_UNIT_ELEMENT(#706,1.);
#705=DERIVED_UNIT_ELEMENT(#1368,-3.);
#706=(
MASS_UNIT()
NAMED_UNIT(*)
SI_UNIT(.KILO.,.GRAM.)
);
#707=DERIVED_UNIT((#704,#705));
#708=MEASURE_REPRESENTATION_ITEM('density measure',
POSITIVE_RATIO_MEASURE(7850.),#707);
#709=PROPERTY_DEFINITION_REPRESENTATION(#714,#711);
#710=PROPERTY_DEFINITION_REPRESENTATION(#715,#712);
#711=REPRESENTATION('material name',(#713),#1365);
#712=REPRESENTATION('density',(#708),#1365);
#713=DESCRIPTIVE_REPRESENTATION_ITEM('Steel','Steel');
#714=PROPERTY_DEFINITION('material property','material name',#1375);
#715=PROPERTY_DEFINITION('material property','density of part',#1375);
#716=AXIS2_PLACEMENT_3D('',#991,#793,#794);
#717=AXIS2_PLACEMENT_3D('',#992,#795,#796);
#718=AXIS2_PLACEMENT_3D('',#1011,#798,#799);
#719=AXIS2_PLACEMENT_3D('',#1015,#801,#802);
#720=AXIS2_PLACEMENT_3D('',#1028,#804,#805);
#721=AXIS2_PLACEMENT_3D('',#1029,#806,#807);
#722=AXIS2_PLACEMENT_3D('',#1030,#808,#809);
#723=AXIS2_PLACEMENT_3D('',#1031,#810,#811);
#724=AXIS2_PLACEMENT_3D('',#1048,#813,#814);
#725=AXIS2_PLACEMENT_3D('',#1076,#818,#819);
#726=AXIS2_PLACEMENT_3D('',#1077,#820,#821);
#727=AXIS2_PLACEMENT_3D('',#1078,#822,#823);
#728=AXIS2_PLACEMENT_3D('',#1079,#824,#825);
#729=AXIS2_PLACEMENT_3D('',#1096,#827,#828);
#730=AXIS2_PLACEMENT_3D('',#1099,#831,#832);
#731=AXIS2_PLACEMENT_3D('',#1110,#833,#834);
#732=AXIS2_PLACEMENT_3D('',#1123,#836,#837);
#733=AXIS2_PLACEMENT_3D('',#1125,#838,#839);
#734=AXIS2_PLACEMENT_3D('',#1127,#840,#841);
#735=AXIS2_PLACEMENT_3D('',#1128,#842,#843);
#736=AXIS2_PLACEMENT_3D('',#1144,#844,#845);
#737=AXIS2_PLACEMENT_3D('',#1164,#846,#847);
#738=AXIS2_PLACEMENT_3D('',#1165,#848,#849);
#739=AXIS2_PLACEMENT_3D('',#1166,#850,#851);
#740=AXIS2_PLACEMENT_3D('',#1169,#852,#853);
#741=AXIS2_PLACEMENT_3D('',#1173,#855,#856);
#742=AXIS2_PLACEMENT_3D('',#1175,#858,#859);
#743=AXIS2_PLACEMENT_3D('',#1189,#861,#862);
#744=AXIS2_PLACEMENT_3D('',#1204,#863,#864);
#745=AXIS2_PLACEMENT_3D('',#1217,#866,#867);
#746=AXIS2_PLACEMENT_3D('',#1219,#868,#869);
#747=AXIS2_PLACEMENT_3D('',#1221,#870,#871);
#748=AXIS2_PLACEMENT_3D('',#1222,#872,#873);
#749=AXIS2_PLACEMENT_3D('',#1240,#874,#875);
#750=AXIS2_PLACEMENT_3D('',#1258,#876,#877);
#751=AXIS2_PLACEMENT_3D('',#1259,#878,#879);
#752=AXIS2_PLACEMENT_3D('',#1260,#880,#881);
#753=AXIS2_PLACEMENT_3D('',#1273,#883,#884);
#754=AXIS2_PLACEMENT_3D('',#1277,#886,#887);
#755=AXIS2_PLACEMENT_3D('',#1279,#889,#890);
#756=AXIS2_PLACEMENT_3D('',#1283,#893,#894);
#757=AXIS2_PLACEMENT_3D('',#1286,#896,#897);
#758=AXIS2_PLACEMENT_3D('',#1287,#898,#899);
#759=AXIS2_PLACEMENT_3D('',#1289,#900,#901);
#760=AXIS2_PLACEMENT_3D('',#1292,#903,#904);
#761=AXIS2_PLACEMENT_3D('',#1293,#905,#906);
#762=AXIS2_PLACEMENT_3D('',#1294,#907,#908);
#763=AXIS2_PLACEMENT_3D('',#1295,#909,#910);
#764=AXIS2_PLACEMENT_3D('',#1296,#911,#912);
#765=AXIS2_PLACEMENT_3D('',#1299,#914,#915);
#766=AXIS2_PLACEMENT_3D('',#1300,#916,#917);
#767=AXIS2_PLACEMENT_3D('',#1301,#918,#919);
#768=AXIS2_PLACEMENT_3D('',#1302,#920,#921);
#769=AXIS2_PLACEMENT_3D('',#1303,#922,#923);
#770=AXIS2_PLACEMENT_3D('',#1306,#925,#926);
#771=AXIS2_PLACEMENT_3D('',#1307,#927,#928);
#772=AXIS2_PLACEMENT_3D('',#1308,#929,#930);
#773=AXIS2_PLACEMENT_3D('',#1309,#931,#932);
#774=AXIS2_PLACEMENT_3D('',#1310,#933,#934);
#775=AXIS2_PLACEMENT_3D('',#1311,#935,#936);
#776=AXIS2_PLACEMENT_3D('',#1313,#937,#938);
#777=AXIS2_PLACEMENT_3D('',#1314,#939,#940);
#778=AXIS2_PLACEMENT_3D('',#1323,#945,#946);
#779=AXIS2_PLACEMENT_3D('',#1327,#948,#949);
#780=AXIS2_PLACEMENT_3D('',#1331,#951,#952);
#781=AXIS2_PLACEMENT_3D('',#1334,#954,#955);
#782=AXIS2_PLACEMENT_3D('',#1343,#960,#961);
#783=AXIS2_PLACEMENT_3D('',#1345,#963,#964);
#784=AXIS2_PLACEMENT_3D('',#1347,#966,#967);
#785=AXIS2_PLACEMENT_3D('',#1349,#969,#970);
#786=AXIS2_PLACEMENT_3D('',#1351,#972,#973);
#787=AXIS2_PLACEMENT_3D('',#1354,#976,#977);
#788=AXIS2_PLACEMENT_3D('',#1356,#979,#980);
#789=AXIS2_PLACEMENT_3D('',#1358,#982,#983);
#790=AXIS2_PLACEMENT_3D('',#1359,#984,#985);
#791=AXIS2_PLACEMENT_3D('',#1361,#987,#988);
#792=AXIS2_PLACEMENT_3D('',#1362,#989,#990);
#793=DIRECTION('axis',(0.,0.,1.));
#794=DIRECTION('refdir',(1.,0.,0.));
#795=DIRECTION('center_axis',(0.,1.,0.));
#796=DIRECTION('ref_axis',(0.70710678118654,0.,0.707106781186555));
#797=DIRECTION('',(0.,-1.,0.));
#798=DIRECTION('center_axis',(0.,1.,0.));
#799=DIRECTION('ref_axis',(0.,0.,1.));
#800=DIRECTION('',(0.,1.,0.));
#801=DIRECTION('center_axis',(0.,-1.,0.));
#802=DIRECTION('ref_axis',(1.,0.,0.));
#803=DIRECTION('',(0.,-1.,0.));
#804=DIRECTION('center_axis',(1.,0.,0.));
#805=DIRECTION('ref_axis',(0.,0.,1.));
#806=DIRECTION('center_axis',(0.,0.,1.));
#807=DIRECTION('ref_axis',(0.707106781186551,-0.707106781186544,0.));
#808=DIRECTION('center_axis',(0.,0.,-1.));
#809=DIRECTION('ref_axis',(0.707106781186551,-0.707106781186544,0.));
#810=DIRECTION('center_axis',(1.,0.,0.));
#811=DIRECTION('ref_axis',(0.,-0.707106781186546,0.707106781186549));
#812=DIRECTION('',(-1.,0.,0.));
#813=DIRECTION('center_axis',(1.,0.,0.));
#814=DIRECTION('ref_axis',(0.,0.,1.));
#815=DIRECTION('',(1.,0.,0.));
#816=DIRECTION('',(-1.,0.,0.));
#817=DIRECTION('',(-1.,0.,0.));
#818=DIRECTION('center_axis',(0.,-1.,0.));
#819=DIRECTION('ref_axis',(0.,0.,1.));
#820=DIRECTION('center_axis',(0.,0.,1.));
#821=DIRECTION('ref_axis',(-0.707106781186547,-0.707106781186547,0.));
#822=DIRECTION('center_axis',(0.,0.,-1.));
#823=DIRECTION('ref_axis',(-0.707106781186548,-0.707106781186548,0.));
#824=DIRECTION('center_axis',(0.,-1.,0.));
#825=DIRECTION('ref_axis',(-0.707106781186546,0.,0.707106781186549));
#826=DIRECTION('',(0.,1.,0.));
#827=DIRECTION('center_axis',(0.,-1.,0.));
#828=DIRECTION('ref_axis',(0.,0.,1.));
#829=DIRECTION('',(0.,-1.,0.));
#830=DIRECTION('',(0.,1.,0.));
#831=DIRECTION('center_axis',(0.,1.,0.));
#832=DIRECTION('ref_axis',(-0.707106781186546,0.,0.707106781186549));
#833=DIRECTION('center_axis',(0.,-1.,0.));
#834=DIRECTION('ref_axis',(0.,0.,1.));
#835=DIRECTION('',(0.,-1.,0.));
#836=DIRECTION('center_axis',(0.451887914125287,0.892074723925915,-3.96160759275472E-15));
#837=DIRECTION('ref_axis',(-0.892074723925915,0.451887914125287,0.));
#838=DIRECTION('center_axis',(0.,0.,-1.));
#839=DIRECTION('ref_axis',(-0.707106781186547,0.707106781186548,0.));
#840=DIRECTION('center_axis',(-0.649650547424676,-0.760232968392465,0.));
#841=DIRECTION('ref_axis',(0.,0.,1.));
#842=DIRECTION('center_axis',(0.,0.,1.));
#843=DIRECTION('ref_axis',(-0.707106781186547,0.707106781186548,0.));
#844=DIRECTION('center_axis',(0.,0.,1.));
#845=DIRECTION('ref_axis',(-1.,0.,0.));
#846=DIRECTION('center_axis',(-1.,0.,0.));
#847=DIRECTION('ref_axis',(0.,0.,1.));
#848=DIRECTION('center_axis',(0.,0.,1.));
#849=DIRECTION('ref_axis',(0.,1.,0.));
#850=DIRECTION('center_axis',(-1.,0.,0.));
#851=DIRECTION('ref_axis',(0.,0.707106781186549,0.707106781186546));
#852=DIRECTION('center_axis',(-1.,0.,0.));
#853=DIRECTION('ref_axis',(0.,0.,1.));
#854=DIRECTION('',(-1.,0.,0.));
#855=DIRECTION('center_axis',(1.,0.,0.));
#856=DIRECTION('ref_axis',(0.,1.,0.));
#857=DIRECTION('',(1.,0.,0.));
#858=DIRECTION('center_axis',(1.,0.,0.));
#859=DIRECTION('ref_axis',(0.,0.707106781186549,0.707106781186546));
#860=DIRECTION('',(-1.,0.,0.));
#861=DIRECTION('center_axis',(1.,0.,0.));
#862=DIRECTION('ref_axis',(0.,0.707106781186549,0.707106781186546));
#863=DIRECTION('center_axis',(-1.,0.,0.));
#864=DIRECTION('ref_axis',(0.,0.,1.));
#865=DIRECTION('',(-1.,0.,0.));
#866=DIRECTION('center_axis',(0.649692665837157,-0.760196974446365,-3.37595273712294E-15));
#867=DIRECTION('ref_axis',(0.760196974446365,0.649692665837157,0.));
#868=DIRECTION('center_axis',(0.,0.,-1.));
#869=DIRECTION('ref_axis',(0.70710678118655,0.707106781186545,0.));
#870=DIRECTION('center_axis',(-0.45183675618203,0.892100636566806,0.));
#871=DIRECTION('ref_axis',(0.,0.,1.));
#872=DIRECTION('center_axis',(0.,0.,1.));
#873=DIRECTION('ref_axis',(0.70710678118655,0.707106781186545,0.));
#874=DIRECTION('center_axis',(0.,0.,1.));
#875=DIRECTION('ref_axis',(0.,1.,0.));
#876=DIRECTION('center_axis',(0.,1.,0.));
#877=DIRECTION('ref_axis',(0.,0.,1.));
#878=DIRECTION('center_axis',(0.,0.,1.));
#879=DIRECTION('ref_axis',(1.,0.,0.));
#880=DIRECTION('center_axis',(0.,-1.,0.));
#881=DIRECTION('ref_axis',(0.70710678118654,0.,0.707106781186555));
#882=DIRECTION('',(0.,1.,0.));
#883=DIRECTION('center_axis',(0.,0.,1.));
#884=DIRECTION('ref_axis',(-0.707106781186547,0.707106781186547,0.));
#885=DIRECTION('',(0.,0.,-1.));
#886=DIRECTION('center_axis',(0.,0.,1.));
#887=DIRECTION('ref_axis',(-0.707106781186547,0.707106781186547,0.));
#888=DIRECTION('',(0.,0.,1.));
#889=DIRECTION('center_axis',(0.,1.,0.));
#890=DIRECTION('ref_axis',(-1.,0.,0.));
#891=DIRECTION('',(0.,0.,1.));
#892=DIRECTION('',(1.,0.,0.));
#893=DIRECTION('center_axis',(0.,0.,1.));
#894=DIRECTION('ref_axis',(0.707106781186547,0.707106781186547,0.));
#895=DIRECTION('',(0.,0.,-1.));
#896=DIRECTION('center_axis',(0.,0.,1.));
#897=DIRECTION('ref_axis',(0.707106781186547,0.707106781186547,0.));
#898=DIRECTION('center_axis',(0.,0.,1.));
#899=DIRECTION('ref_axis',(-1.,0.,0.));
#900=DIRECTION('center_axis',(0.,0.,-1.));
#901=DIRECTION('ref_axis',(-1.,0.,0.));
#902=DIRECTION('',(0.,0.,-1.));
#903=DIRECTION('center_axis',(0.,0.,-1.));
#904=DIRECTION('ref_axis',(-1.,0.,0.));
#905=DIRECTION('center_axis',(0.,0.,-1.));
#906=DIRECTION('ref_axis',(-1.,0.,0.));
#907=DIRECTION('center_axis',(0.,0.,-1.));
#908=DIRECTION('ref_axis',(-1.,0.,0.));
#909=DIRECTION('center_axis',(0.,0.,1.));
#910=DIRECTION('ref_axis',(-1.,0.,0.));
#911=DIRECTION('center_axis',(0.,0.,-1.));
#912=DIRECTION('ref_axis',(-1.,0.,0.));
#913=DIRECTION('',(0.,0.,-1.));
#914=DIRECTION('center_axis',(0.,0.,-1.));
#915=DIRECTION('ref_axis',(-1.,0.,0.));
#916=DIRECTION('center_axis',(0.,0.,-1.));
#917=DIRECTION('ref_axis',(-1.,0.,0.));
#918=DIRECTION('center_axis',(0.,0.,1.));
#919=DIRECTION('ref_axis',(-1.,0.,0.));
#920=DIRECTION('center_axis',(0.,0.,-1.));
#921=DIRECTION('ref_axis',(-1.,0.,0.));
#922=DIRECTION('center_axis',(0.,0.,-1.));
#923=DIRECTION('ref_axis',(-1.,0.,0.));
#924=DIRECTION('',(0.,0.,-1.));
#925=DIRECTION('center_axis',(0.,0.,-1.));
#926=DIRECTION('ref_axis',(-1.,0.,0.));
#927=DIRECTION('center_axis',(0.,0.,1.));
#928=DIRECTION('ref_axis',(-1.,0.,0.));
#929=DIRECTION('center_axis',(0.,0.,1.));
#930=DIRECTION('ref_axis',(-1.,0.,0.));
#931=DIRECTION('center_axis',(0.,0.,-1.));
#932=DIRECTION('ref_axis',(-1.,0.,0.));
#933=DIRECTION('center_axis',(0.,0.,1.));
#934=DIRECTION('ref_axis',(-1.,0.,0.));
#935=DIRECTION('center_axis',(0.,0.,1.));
#936=DIRECTION('ref_axis',(-1.,0.,0.));
#937=DIRECTION('center_axis',(0.,0.,-1.));
#938=DIRECTION('ref_axis',(-1.,0.,0.));
#939=DIRECTION('center_axis',(0.,0.,-1.));
#940=DIRECTION('ref_axis',(-1.,0.,0.));
#941=DIRECTION('',(-1.,0.,0.));
#942=DIRECTION('',(0.,1.,0.));
#943=DIRECTION('',(1.,0.,0.));
#944=DIRECTION('',(0.,-1.,0.));
#945=DIRECTION('center_axis',(0.,0.,1.));
#946=DIRECTION('ref_axis',(-1.,0.,0.));
#947=DIRECTION('',(0.,-1.,0.));
#948=DIRECTION('center_axis',(0.,0.,1.));
#949=DIRECTION('ref_axis',(0.707106781186547,-0.707106781186547,0.));
#950=DIRECTION('',(-1.,0.,0.));
#951=DIRECTION('center_axis',(0.,0.,1.));
#952=DIRECTION('ref_axis',(-0.707106781186547,-0.707106781186547,0.));
#953=DIRECTION('',(0.,1.,0.));
#954=DIRECTION('center_axis',(0.,0.,-1.));
#955=DIRECTION('ref_axis',(-1.,0.,0.));
#956=DIRECTION('',(-1.,0.,0.));
#957=DIRECTION('',(0.,-1.,0.));
#958=DIRECTION('',(1.,0.,0.));
#959=DIRECTION('',(0.,1.,0.));
#960=DIRECTION('center_axis',(-1.,0.,0.));
#961=DIRECTION('ref_axis',(0.,-1.,0.));
#962=DIRECTION('',(0.,0.,-1.));
#963=DIRECTION('center_axis',(0.,0.,1.));
#964=DIRECTION('ref_axis',(-0.707106781186547,-0.707106781186547,0.));
#965=DIRECTION('',(0.,0.,1.));
#966=DIRECTION('center_axis',(0.,-1.,0.));
#967=DIRECTION('ref_axis',(1.,0.,0.));
#968=DIRECTION('',(0.,0.,-1.));
#969=DIRECTION('center_axis',(0.,0.,1.));
#970=DIRECTION('ref_axis',(0.707106781186547,-0.707106781186547,0.));
#971=DIRECTION('',(0.,0.,1.));
#972=DIRECTION('center_axis',(-1.,0.,0.));
#973=DIRECTION('ref_axis',(0.,-1.,0.));
#974=DIRECTION('',(0.,0.,1.));
#975=DIRECTION('',(0.,0.,1.));
#976=DIRECTION('center_axis',(0.,-1.,0.));
#977=DIRECTION('ref_axis',(1.,0.,0.));
#978=DIRECTION('',(0.,0.,1.));
#979=DIRECTION('center_axis',(1.,0.,0.));
#980=DIRECTION('ref_axis',(0.,1.,0.));
#981=DIRECTION('',(0.,0.,1.));
#982=DIRECTION('center_axis',(0.,1.,0.));
#983=DIRECTION('ref_axis',(-1.,0.,0.));
#984=DIRECTION('center_axis',(0.,0.,1.));
#985=DIRECTION('ref_axis',(-1.,0.,0.));
#986=DIRECTION('',(0.,0.,-1.));
#987=DIRECTION('center_axis',(1.,0.,0.));
#988=DIRECTION('ref_axis',(0.,1.,0.));
#989=DIRECTION('center_axis',(0.,0.,1.));
#990=DIRECTION('ref_axis',(-1.,0.,0.));
#991=CARTESIAN_POINT('',(0.,0.,0.));
#992=CARTESIAN_POINT('Origin',(190.688986981021,-105.505393326966,27.1574640861153));
#993=CARTESIAN_POINT('',(190.688986981021,-122.453257530112,29.1574640861153));
#994=CARTESIAN_POINT('',(190.988986981021,-123.589039199272,29.1348360794438));
#995=CARTESIAN_POINT('Ctrl Pts',(190.688986981021,-122.453257530112,29.1574640861153));
#996=CARTESIAN_POINT('Ctrl Pts',(190.711686714932,-122.493229532701,29.1574640861153));
#997=CARTESIAN_POINT('Ctrl Pts',(190.733218783493,-122.533938299357,29.1570780737846));
#998=CARTESIAN_POINT('Ctrl Pts',(190.909234485868,-122.892397696111,29.1513957392763));
#999=CARTESIAN_POINT('Ctrl Pts',(190.988986981021,-123.249049437432,29.1348360794438));
#1000=CARTESIAN_POINT('Ctrl Pts',(190.988986981021,-123.589039199272,29.1348360794438));
#1001=CARTESIAN_POINT('',(190.688986981021,-124.724820868432,29.1574640861153));
#1002=CARTESIAN_POINT('Ctrl Pts',(190.988986981021,-123.589039199272,29.1348360794438));
#1003=CARTESIAN_POINT('Ctrl Pts',(190.988986981021,-123.929028961112,29.1348360794438));
#1004=CARTESIAN_POINT('Ctrl Pts',(190.909234485868,-124.285680702433,29.1513957392763));
#1005=CARTESIAN_POINT('Ctrl Pts',(190.733218783493,-124.644140099187,29.1570780737846));
#1006=CARTESIAN_POINT('Ctrl Pts',(190.711686714931,-124.684848865843,29.1574640861153));
#1007=CARTESIAN_POINT('Ctrl Pts',(190.688986981021,-124.724820868432,29.1574640861153));
#1008=CARTESIAN_POINT('',(190.688986981021,-125.089039199272,29.1574640861153));
#1009=CARTESIAN_POINT('',(190.688986981021,-105.505393326966,29.1574640861153));
#1010=CARTESIAN_POINT('',(192.688986981021,-125.089039199272,27.1574640861153));
#1011=CARTESIAN_POINT('Origin',(190.688986981021,-125.089039199272,27.1574640861153));
#1012=CARTESIAN_POINT('',(192.688986981021,-43.8902318192989,27.1574640861153));
#1013=CARTESIAN_POINT('',(192.688986981021,-105.505393326966,27.1574640861153));
#1014=CARTESIAN_POINT('',(190.688986981021,-43.8902318192989,29.1574640861153));
#1015=CARTESIAN_POINT('Origin',(190.688986981021,-43.8902318192989,27.1574640861153));
#1016=CARTESIAN_POINT('',(190.688986981021,-105.505393326966,29.1574640861153));
#1017=CARTESIAN_POINT('Ctrl Pts',(190.688986981021,-125.089039199272,29.1574640861153));
#1018=CARTESIAN_POINT('Ctrl Pts',(190.688986981021,-125.589039199272,29.1574640861153));
#1019=CARTESIAN_POINT('Ctrl Pts',(190.188986981021,-125.589039199272,29.1574640861153));
#1020=CARTESIAN_POINT('Ctrl Pts',(192.688986981021,-125.089039199272,29.1574640861153));
#1021=CARTESIAN_POINT('Ctrl Pts',(192.688986981021,-127.589039199272,29.1574640861153));
#1022=CARTESIAN_POINT('Ctrl Pts',(190.188986981021,-127.589039199272,29.1574640861153));
#1023=CARTESIAN_POINT('Ctrl Pts',(192.688986981021,-125.089039199272,27.1574640861153));
#1024=CARTESIAN_POINT('Ctrl Pts',(192.688986981021,-127.589039199272,27.1574640861153));
#1025=CARTESIAN_POINT('Ctrl Pts',(190.188986981021,-127.589039199272,27.1574640861153));
#1026=CARTESIAN_POINT('',(190.188986981021,-125.589039199272,29.1574640861153));
#1027=CARTESIAN_POINT('',(190.188986981021,-127.589039199272,27.1574640861153));
#1028=CARTESIAN_POINT('Origin',(190.188986981021,-125.589039199272,27.1574640861153));
#1029=CARTESIAN_POINT('Origin',(190.188986981021,-125.089039199272,27.1574640861153));
#1030=CARTESIAN_POINT('Origin',(190.188986981021,-125.089039199272,29.1574640861153));
#1031=CARTESIAN_POINT('Origin',(121.438986981021,-125.589039199272,27.1574640861153));
#1032=CARTESIAN_POINT('',(102.824768650181,-125.589039199272,29.1574640861153));
#1033=CARTESIAN_POINT('',(100.553205311861,-125.589039199272,29.1574640861153));
#1034=CARTESIAN_POINT('Ctrl Pts',(102.824768650181,-125.589039199272,29.1574640861153));
#1035=CARTESIAN_POINT('Ctrl Pts',(102.784796647592,-125.611738933182,29.1574640861153));
#1036=CARTESIAN_POINT('Ctrl Pts',(102.744087880935,-125.633271001744,29.1570780737846));
#1037=CARTESIAN_POINT('Ctrl Pts',(102.385628484182,-125.809286704119,29.1513957392763));
#1038=CARTESIAN_POINT('Ctrl Pts',(102.028976742861,-125.889039199272,29.1348360794438));
#1039=CARTESIAN_POINT('Ctrl Pts',(101.688986981021,-125.889039199272,29.1348360794438));
#1040=CARTESIAN_POINT('Ctrl Pts',(101.348997219181,-125.889039199272,29.1348360794438));
#1041=CARTESIAN_POINT('Ctrl Pts',(100.99234547786,-125.809286704119,29.1513957392763));
#1042=CARTESIAN_POINT('Ctrl Pts',(100.633886081106,-125.633271001743,29.1570780737846));
#1043=CARTESIAN_POINT('Ctrl Pts',(100.59317731445,-125.611738933182,29.1574640861153));
#1044=CARTESIAN_POINT('Ctrl Pts',(100.553205311861,-125.589039199272,29.1574640861153));
#1045=CARTESIAN_POINT('',(100.188986981021,-125.589039199272,29.1574640861153));
#1046=CARTESIAN_POINT('',(121.438986981021,-125.589039199272,29.1574640861153));
#1047=CARTESIAN_POINT('',(100.188986981021,-127.589039199272,27.1574640861153));
#1048=CARTESIAN_POINT('Origin',(100.188986981021,-125.589039199272,27.1574640861153));
#1049=CARTESIAN_POINT('',(121.438986981021,-127.589039199272,27.1574640861153));
#1050=CARTESIAN_POINT('',(189.824768650181,-125.589039199272,29.1574640861153));
#1051=CARTESIAN_POINT('',(121.438986981021,-125.589039199272,29.1574640861153));
#1052=CARTESIAN_POINT('',(187.553205311861,-125.589039199272,29.1574640861153));
#1053=CARTESIAN_POINT('Ctrl Pts',(189.824768650181,-125.589039199272,29.1574640861153));
#1054=CARTESIAN_POINT('Ctrl Pts',(189.784796647592,-125.611738933182,29.1574640861153));
#1055=CARTESIAN_POINT('Ctrl Pts',(189.744087880936,-125.633271001743,29.1570780737846));
#1056=CARTESIAN_POINT('Ctrl Pts',(189.385628484182,-125.809286704119,29.1513957392763));
#1057=CARTESIAN_POINT('Ctrl Pts',(189.028976742861,-125.889039199272,29.1348360794438));
#1058=CARTESIAN_POINT('Ctrl Pts',(188.688986981021,-125.889039199272,29.1348360794438));
#1059=CARTESIAN_POINT('Ctrl Pts',(188.348997219181,-125.889039199272,29.1348360794438));
#1060=CARTESIAN_POINT('Ctrl Pts',(187.99234547786,-125.809286704119,29.1513957392763));
#1061=CARTESIAN_POINT('Ctrl Pts',(187.633886081107,-125.633271001743,29.1570780737846));
#1062=CARTESIAN_POINT('Ctrl Pts',(187.593177314451,-125.611738933182,29.1574640861153));
#1063=CARTESIAN_POINT('Ctrl Pts',(187.553205311861,-125.589039199272,29.1574640861153));
#1064=CARTESIAN_POINT('',(121.438986981021,-125.589039199272,29.1574640861153));
#1065=CARTESIAN_POINT('Ctrl Pts',(100.188986981021,-125.589039199272,29.1574640861153));
#1066=CARTESIAN_POINT('Ctrl Pts',(99.6889869810208,-125.589039199272,29.1574640861153));
#1067=CARTESIAN_POINT('Ctrl Pts',(99.6889869810208,-125.089039199272,29.1574640861153));
#1068=CARTESIAN_POINT('Ctrl Pts',(100.188986981021,-127.589039199272,29.1574640861153));
#1069=CARTESIAN_POINT('Ctrl Pts',(97.6889869810208,-127.589039199272,29.1574640861153));
#1070=CARTESIAN_POINT('Ctrl Pts',(97.6889869810208,-125.089039199272,29.1574640861153));
#1071=CARTESIAN_POINT('Ctrl Pts',(100.188986981021,-127.589039199272,27.1574640861153));
#1072=CARTESIAN_POINT('Ctrl Pts',(97.6889869810208,-127.589039199272,27.1574640861153));
#1073=CARTESIAN_POINT('Ctrl Pts',(97.6889869810208,-125.089039199272,27.1574640861153));
#1074=CARTESIAN_POINT('',(99.6889869810208,-125.089039199272,29.1574640861153));
#1075=CARTESIAN_POINT('',(97.6889869810208,-125.089039199272,27.1574640861153));
#1076=CARTESIAN_POINT('Origin',(99.6889869810208,-125.089039199272,27.1574640861153));
#1077=CARTESIAN_POINT('Origin',(100.188986981021,-125.089039199272,27.1574640861153));
#1078=CARTESIAN_POINT('Origin',(100.188986981021,-125.089039199272,29.1574640861153));
#1079=CARTESIAN_POINT('Origin',(99.6889869810208,-61.3381015823554,27.1574640861153));
#1080=CARTESIAN_POINT('',(99.6889869810208,-124.724820868432,29.1574640861153));
#1081=CARTESIAN_POINT('',(99.6889869810208,-122.453257530112,29.1574640861153));
#1082=CARTESIAN_POINT('Ctrl Pts',(99.6889869810208,-124.724820868432,29.1574640861153));
#1083=CARTESIAN_POINT('Ctrl Pts',(99.6662872471105,-124.684848865843,29.1574640861153));
#1084=CARTESIAN_POINT('Ctrl Pts',(99.6447551785492,-124.644140099187,29.1570780737846));
#1085=CARTESIAN_POINT('Ctrl Pts',(99.468739476174,-124.285680702433,29.1513957392763));
#1086=CARTESIAN_POINT('Ctrl Pts',(99.3889869810208,-123.929028961112,29.1348360794438));
#1087=CARTESIAN_POINT('Ctrl Pts',(99.3889869810208,-123.589039199272,29.1348360794438));
#1088=CARTESIAN_POINT('Ctrl Pts',(99.3889869810208,-123.249049437432,29.1348360794438));
#1089=CARTESIAN_POINT('Ctrl Pts',(99.468739476174,-122.892397696111,29.1513957392763));
#1090=CARTESIAN_POINT('Ctrl Pts',(99.6447551785492,-122.533938299357,29.1570780737846));
#1091=CARTESIAN_POINT('Ctrl Pts',(99.6662872471105,-122.493229532701,29.1574640861153));
#1092=CARTESIAN_POINT('Ctrl Pts',(99.6889869810208,-122.453257530112,29.1574640861153));
#1093=CARTESIAN_POINT('',(99.6889869810208,-43.8902373792187,29.1574640861153));
#1094=CARTESIAN_POINT('',(99.6889869810208,-61.3381015823554,29.1574640861153));
#1095=CARTESIAN_POINT('',(97.6889869810208,-43.8902373792187,27.1574640861153));
#1096=CARTESIAN_POINT('Origin',(99.6889869810208,-43.8902373792187,27.1574640861153));
#1097=CARTESIAN_POINT('',(97.6889869810208,-61.3381015823554,27.1574640861153));
#1098=CARTESIAN_POINT('',(99.6889869810208,-61.3381015823554,29.1574640861153));
#1099=CARTESIAN_POINT('Origin',(99.6889869810208,-61.3381015823554,27.1574640861153));
#1100=CARTESIAN_POINT('',(99.6177554632962,-41.7544557100499,29.1561952013188));
#1101=CARTESIAN_POINT('Ctrl Pts',(99.6889869810208,-43.8902373792187,29.1574640861153));
#1102=CARTESIAN_POINT('Ctrl Pts',(99.666287247109,-43.8502653766271,29.1574640861153));
#1103=CARTESIAN_POINT('Ctrl Pts',(99.6447551785464,-43.8095566099687,29.1570780737846));
#1104=CARTESIAN_POINT('Ctrl Pts',(99.4687394761698,-43.4510972132126,29.1513957392758));
#1105=CARTESIAN_POINT('Ctrl Pts',(99.3889869810165,-43.0944454718913,29.1348360794431));
#1106=CARTESIAN_POINT('Ctrl Pts',(99.3889869810165,-42.419373788703,29.1348360794431));
#1107=CARTESIAN_POINT('Ctrl Pts',(99.4663484689701,-42.0680546487011,29.1507993029321));
#1108=CARTESIAN_POINT('Ctrl Pts',(99.6177554632962,-41.7544557100499,29.1561952013188));
#1109=CARTESIAN_POINT('',(97.6889869810208,-41.7544557100499,27.1574640861153));
#1110=CARTESIAN_POINT('Origin',(99.6889869810208,-41.7544557100499,27.1574640861153));
#1111=CARTESIAN_POINT('',(97.6889869810208,-61.3381015823554,27.1574640861153));
#1112=CARTESIAN_POINT('Ctrl Pts',(99.7429496190578,-41.5285117529872,29.1574640861153));
#1113=CARTESIAN_POINT('Ctrl Pts',(99.7699925676167,-41.4751261011127,29.1574640861153));
#1114=CARTESIAN_POINT('Ctrl Pts',(99.8088704968246,-41.4296304363375,29.1574640861153));
#1115=CARTESIAN_POINT('Ctrl Pts',(97.958800171206,-40.6247359247367,29.1574640861153));
#1116=CARTESIAN_POINT('Ctrl Pts',(98.0940149140004,-40.3578076653641,29.1574640861153));
#1117=CARTESIAN_POINT('Ctrl Pts',(98.2884045600397,-40.1303293414882,29.1574640861153));
#1118=CARTESIAN_POINT('Ctrl Pts',(97.958800171206,-40.6247359247367,27.1574640861153));
#1119=CARTESIAN_POINT('Ctrl Pts',(98.0940149140004,-40.3578076653641,27.1574640861153));
#1120=CARTESIAN_POINT('Ctrl Pts',(98.2884045600397,-40.1303293414882,27.1574640861153));
#1121=CARTESIAN_POINT('',(97.958800171206,-40.6247359247367,27.1574640861153));
#1122=CARTESIAN_POINT('',(99.7429496190578,-41.5285117529872,29.1574640861153));
#1123=CARTESIAN_POINT('Origin',(99.7429496190578,-41.5285117529872,27.1574640861153));
#1124=CARTESIAN_POINT('',(99.8088704968246,-41.4296304363376,29.1574640861153));
#1125=CARTESIAN_POINT('Origin',(100.188986981021,-41.7544557100499,29.1574640861153));
#1126=CARTESIAN_POINT('',(98.2884045600397,-40.1303293414882,27.1574640861153));
#1127=CARTESIAN_POINT('Origin',(99.8088704968246,-41.4296304363376,27.1574640861153));
#1128=CARTESIAN_POINT('Origin',(100.188986981021,-41.7544557100499,27.1574640861153));
#1129=CARTESIAN_POINT('Ctrl Pts',(99.6889869810208,-41.7544557100499,29.1574640861153));
#1130=CARTESIAN_POINT('Ctrl Pts',(99.6889869810208,-41.6350397302234,29.1574640861153));
#1131=CARTESIAN_POINT('Ctrl Pts',(99.7429496190578,-41.5285117529872,29.1574640861153));
#1132=CARTESIAN_POINT('Ctrl Pts',(97.6889869810208,-41.7544557100499,29.1574640861153));
#1133=CARTESIAN_POINT('Ctrl Pts',(97.6889869810208,-41.1573758109172,29.1574640861153));
#1134=CARTESIAN_POINT('Ctrl Pts',(97.958800171206,-40.6247359247367,29.1574640861153));
#1135=CARTESIAN_POINT('Ctrl Pts',(97.6889869810208,-41.7544557100499,27.1574640861153));
#1136=CARTESIAN_POINT('Ctrl Pts',(97.6889869810208,-41.1573758109172,27.1574640861153));
#1137=CARTESIAN_POINT('Ctrl Pts',(97.958800171206,-40.6247359247367,27.1574640861153));
#1138=CARTESIAN_POINT('Ctrl Pts',(99.6177554632962,-41.7544557100499,29.1561952013188));
#1139=CARTESIAN_POINT('Ctrl Pts',(99.6392359597538,-41.7099646287707,29.1569607311854));
#1140=CARTESIAN_POINT('Ctrl Pts',(99.6621385329337,-41.6661892813531,29.1572471221809));
#1141=CARTESIAN_POINT('Ctrl Pts',(99.7044898033488,-41.5912189877813,29.1574610473107));
#1142=CARTESIAN_POINT('Ctrl Pts',(99.7233426253039,-41.559635477837,29.1574640861153));
#1143=CARTESIAN_POINT('Ctrl Pts',(99.7429496190579,-41.5285117529872,29.1574640861153));
#1144=CARTESIAN_POINT('Origin',(100.188986981021,-41.7544557100499,27.1574640861153));
#1145=CARTESIAN_POINT('Ctrl Pts',(99.8088704968246,-41.4296304363375,29.1574640861153));
#1146=CARTESIAN_POINT('Ctrl Pts',(99.9585645531984,-41.2544557100499,29.1574640861153));
#1147=CARTESIAN_POINT('Ctrl Pts',(100.188986981021,-41.2544557100499,29.1574640861153));
#1148=CARTESIAN_POINT('Ctrl Pts',(98.2884045600397,-40.1303293414882,29.1574640861153));
#1149=CARTESIAN_POINT('Ctrl Pts',(99.0368748419085,-39.2544557100499,29.1574640861153));
#1150=CARTESIAN_POINT('Ctrl Pts',(100.188986981021,-39.2544557100499,29.1574640861153));
#1151=CARTESIAN_POINT('Ctrl Pts',(98.2884045600397,-40.1303293414882,27.1574640861153));
#1152=CARTESIAN_POINT('Ctrl Pts',(99.0368748419085,-39.2544557100499,27.1574640861153));
#1153=CARTESIAN_POINT('Ctrl Pts',(100.188986981021,-39.2544557100499,27.1574640861153));
#1154=CARTESIAN_POINT('',(100.188986981021,-41.010896132631,29.1425783730639));
#1155=CARTESIAN_POINT('Ctrl Pts',(99.8088704968246,-41.4296304363376,29.1574640861153));
#1156=CARTESIAN_POINT('Ctrl Pts',(99.8354939134051,-41.3918480016484,29.1574640861153));
#1157=CARTESIAN_POINT('Ctrl Pts',(99.8632364438458,-41.3548992661838,29.1574634780054));
#1158=CARTESIAN_POINT('Ctrl Pts',(99.9623482779907,-41.2308339172951,29.1568293059307));
#1159=CARTESIAN_POINT('Ctrl Pts',(100.039120201392,-41.1479944478678,29.1551552430312));
#1160=CARTESIAN_POINT('Ctrl Pts',(100.143918371967,-41.0504395161302,29.1470096244095));
#1161=CARTESIAN_POINT('Ctrl Pts',(100.166296778785,-41.0304167178718,29.1449734117392));
#1162=CARTESIAN_POINT('Ctrl Pts',(100.188986981021,-41.010896132631,29.1425783730639));
#1163=CARTESIAN_POINT('',(100.188986981021,-39.2544557100499,27.1574640861153));
#1164=CARTESIAN_POINT('Origin',(100.188986981021,-41.2544557100499,27.1574640861153));
#1165=CARTESIAN_POINT('Origin',(100.188986981021,-41.7544557100499,27.1574640861153));
#1166=CARTESIAN_POINT('Origin',(168.938986981021,-41.2544557100499,27.1574640861153));
#1167=CARTESIAN_POINT('',(186.945424246192,-41.2544557100499,29.1574640861153));
#1168=CARTESIAN_POINT('',(186.945424246192,-39.2544557100499,27.1574640861153));
#1169=CARTESIAN_POINT('Origin',(186.945424246192,-41.2544557100499,27.1574640861153));
#1170=CARTESIAN_POINT('',(103.432546558432,-39.2544557100499,27.1574640861153));
#1171=CARTESIAN_POINT('',(168.938986981021,-39.2544557100499,27.1574640861153));
#1172=CARTESIAN_POINT('',(103.432546558432,-41.2544557100499,29.1574640861153));
#1173=CARTESIAN_POINT('Origin',(103.432546558432,-41.2544557100499,27.1574640861153));
#1174=CARTESIAN_POINT('',(168.938986981021,-41.2544557100499,29.1574640861153));
#1175=CARTESIAN_POINT('Origin',(168.938986981021,-41.2544557100499,27.1574640861153));
#1176=CARTESIAN_POINT('Ctrl Pts',(100.188986981021,-41.010896132631,29.1425783730639));
#1177=CARTESIAN_POINT('Ctrl Pts',(100.317844184722,-40.9000391203134,29.1289769964321));
#1178=CARTESIAN_POINT('Ctrl Pts',(100.459696684726,-40.8030415711142,29.1076243446187));
#1179=CARTESIAN_POINT('Ctrl Pts',(100.942606393958,-40.5466863665588,29.0369580073681));
#1180=CARTESIAN_POINT('Ctrl Pts',(101.320985170819,-40.454455710051,28.9904943640981));
#1181=CARTESIAN_POINT('Ctrl Pts',(102.056988791214,-40.454455710051,28.9904943640981));
#1182=CARTESIAN_POINT('Ctrl Pts',(102.435367568075,-40.5466863665589,29.0369580073681));
#1183=CARTESIAN_POINT('Ctrl Pts',(102.933448322367,-40.8110952016069,29.1098443914849));
#1184=CARTESIAN_POINT('Ctrl Pts',(103.088546325306,-40.9197440408438,29.1332889082571));
#1185=CARTESIAN_POINT('Ctrl Pts',(103.300459998916,-41.1104382156622,29.1533500854411));
#1186=CARTESIAN_POINT('Ctrl Pts',(103.369017799832,-41.1806115930513,29.1574640861153));
#1187=CARTESIAN_POINT('Ctrl Pts',(103.432546558432,-41.2544557100499,29.1574640861153));
#1188=CARTESIAN_POINT('',(168.938986981021,-39.2544557100499,27.1574640861153));
#1189=CARTESIAN_POINT('Origin',(168.938986981021,-41.2544557100499,27.1574640861153));
#1190=CARTESIAN_POINT('',(190.188986981021,-41.0108988489859,29.1425787063397));
#1191=CARTESIAN_POINT('Ctrl Pts',(186.945424246192,-41.2544557100499,29.1574640861153));
#1192=CARTESIAN_POINT('Ctrl Pts',(187.008953004792,-41.1806115930504,29.1574640861153));
#1193=CARTESIAN_POINT('Ctrl Pts',(187.077510805709,-41.1104382156604,29.153350085441));
#1194=CARTESIAN_POINT('Ctrl Pts',(187.28942447932,-40.9197440408412,29.1332889082566));
#1195=CARTESIAN_POINT('Ctrl Pts',(187.444522482259,-40.8110952016042,29.1098443914843));
#1196=CARTESIAN_POINT('Ctrl Pts',(187.942603236551,-40.546686366556,29.036958007367));
#1197=CARTESIAN_POINT('Ctrl Pts',(188.320982013413,-40.4544557100481,28.9904943640968));
#1198=CARTESIAN_POINT('Ctrl Pts',(189.056985633807,-40.4544557100481,28.9904943640968));
#1199=CARTESIAN_POINT('Ctrl Pts',(189.435364410669,-40.546686366556,29.036958007367));
#1200=CARTESIAN_POINT('Ctrl Pts',(189.918275352053,-40.8030422252055,29.1076245249243));
#1201=CARTESIAN_POINT('Ctrl Pts',(190.060128935702,-40.9000407065571,29.1289773450287));
#1202=CARTESIAN_POINT('Ctrl Pts',(190.188986981021,-41.010898848986,29.1425787063397));
#1203=CARTESIAN_POINT('',(190.188986981021,-39.2544557100499,27.1574640861153));
#1204=CARTESIAN_POINT('Origin',(190.188986981021,-41.2544557100499,27.1574640861153));
#1205=CARTESIAN_POINT('',(168.938986981021,-39.2544557100499,27.1574640861153));
#1206=CARTESIAN_POINT('Ctrl Pts',(190.569085468244,-41.4296093771313,29.1574640861153));
#1207=CARTESIAN_POINT('Ctrl Pts',(190.607984493619,-41.4751246229604,29.1574640861153));
#1208=CARTESIAN_POINT('Ctrl Pts',(190.635037299305,-41.5285373319589,29.1574640861153));
#1209=CARTESIAN_POINT('Ctrl Pts',(192.089479417137,-40.130224045457,29.1574640861153));
#1210=CARTESIAN_POINT('Ctrl Pts',(192.283974544012,-40.3578002746024,29.1574640861153));
#1211=CARTESIAN_POINT('Ctrl Pts',(192.419238572438,-40.6248638195948,29.1574640861153));
#1212=CARTESIAN_POINT('Ctrl Pts',(192.089479417137,-40.130224045457,27.1574640861153));
#1213=CARTESIAN_POINT('Ctrl Pts',(192.283974544012,-40.3578002746024,27.1574640861153));
#1214=CARTESIAN_POINT('Ctrl Pts',(192.419238572438,-40.6248638195948,27.1574640861153));
#1215=CARTESIAN_POINT('',(192.089479417137,-40.130224045457,27.1574640861153));
#1216=CARTESIAN_POINT('',(190.569085468244,-41.4296093771313,29.1574640861153));
#1217=CARTESIAN_POINT('Origin',(190.569085468244,-41.4296093771313,27.1574640861153));
#1218=CARTESIAN_POINT('',(190.635037299305,-41.5285373319589,29.1574640861153));
#1219=CARTESIAN_POINT('Origin',(190.188986981021,-41.7544557100499,29.1574640861153));
#1220=CARTESIAN_POINT('',(192.419238572438,-40.6248638195948,27.1574640861153));
#1221=CARTESIAN_POINT('Origin',(190.635037299305,-41.5285373319589,27.1574640861153));
#1222=CARTESIAN_POINT('Origin',(190.188986981021,-41.7544557100499,27.1574640861153));
#1223=CARTESIAN_POINT('Ctrl Pts',(190.188986981021,-41.2544557100499,29.1574640861153));
#1224=CARTESIAN_POINT('Ctrl Pts',(190.419392616625,-41.2544557100499,29.1574640861153));
#1225=CARTESIAN_POINT('Ctrl Pts',(190.569085468244,-41.4296093771313,29.1574640861153));
#1226=CARTESIAN_POINT('Ctrl Pts',(190.188986981021,-39.2544557100499,29.1574640861153));
#1227=CARTESIAN_POINT('Ctrl Pts',(191.34101515904,-39.2544557100498,29.1574640861153));
#1228=CARTESIAN_POINT('Ctrl Pts',(192.089479417137,-40.130224045457,29.1574640861153));
#1229=CARTESIAN_POINT('Ctrl Pts',(190.188986981021,-39.2544557100499,27.1574640861153));
#1230=CARTESIAN_POINT('Ctrl Pts',(191.34101515904,-39.2544557100498,27.1574640861153));
#1231=CARTESIAN_POINT('Ctrl Pts',(192.089479417137,-40.130224045457,27.1574640861153));
#1232=CARTESIAN_POINT('Ctrl Pts',(190.188986981021,-41.010898848986,29.1425787063397));
#1233=CARTESIAN_POINT('Ctrl Pts',(190.218621449019,-41.0363937419586,29.1457067151923));
#1234=CARTESIAN_POINT('Ctrl Pts',(190.247704829847,-41.0627283078615,29.1482196776442));
#1235=CARTESIAN_POINT('Ctrl Pts',(190.358150177542,-41.1680449940141,29.1559120492344));
#1236=CARTESIAN_POINT('Ctrl Pts',(190.434070555902,-41.2519859388887,29.1570894066998));
#1237=CARTESIAN_POINT('Ctrl Pts',(190.526004598157,-41.3700053831121,29.1574610371762));
#1238=CARTESIAN_POINT('Ctrl Pts',(190.547902087438,-41.3995478461419,29.1574640861153));
#1239=CARTESIAN_POINT('Ctrl Pts',(190.569085468244,-41.4296093771313,29.1574640861153));
#1240=CARTESIAN_POINT('Origin',(190.188986981021,-41.7544557100499,27.1574640861153));
#1241=CARTESIAN_POINT('Ctrl Pts',(190.635037299305,-41.5285373319589,29.1574640861153));
#1242=CARTESIAN_POINT('Ctrl Pts',(190.688986981021,-41.6350548844675,29.1574640861153));
#1243=CARTESIAN_POINT('Ctrl Pts',(190.688986981021,-41.7544557100499,29.1574640861153));
#1244=CARTESIAN_POINT('Ctrl Pts',(192.419238572438,-40.6248638195948,29.1574640861153));
#1245=CARTESIAN_POINT('Ctrl Pts',(192.688986981021,-41.157451582138,29.1574640861153));
#1246=CARTESIAN_POINT('Ctrl Pts',(192.688986981021,-41.7544557100499,29.1574640861153));
#1247=CARTESIAN_POINT('Ctrl Pts',(192.419238572438,-40.6248638195948,27.1574640861153));
#1248=CARTESIAN_POINT('Ctrl Pts',(192.688986981021,-41.157451582138,27.1574640861153));
#1249=CARTESIAN_POINT('Ctrl Pts',(192.688986981021,-41.7544557100499,27.1574640861153));
#1250=CARTESIAN_POINT('',(190.760215341332,-41.7544557100499,29.1561953138414));
#1251=CARTESIAN_POINT('Ctrl Pts',(190.635037299305,-41.5285373319589,29.1574640861153));
#1252=CARTESIAN_POINT('Ctrl Pts',(190.659668017293,-41.5676367493487,29.1574640861153));
#1253=CARTESIAN_POINT('Ctrl Pts',(190.683099217739,-41.6074482195025,29.1574634584853));
#1254=CARTESIAN_POINT('Ctrl Pts',(190.72450559561,-41.6828913010702,29.1571197973124));
#1255=CARTESIAN_POINT('Ctrl Pts',(190.742827530758,-41.7184415287654,29.1568149595543));
#1256=CARTESIAN_POINT('Ctrl Pts',(190.760215341332,-41.7544557100499,29.1561953138414));
#1257=CARTESIAN_POINT('',(192.688986981021,-41.7544557100499,27.1574640861153));
#1258=CARTESIAN_POINT('Origin',(190.688986981021,-41.7544557100499,27.1574640861153));
#1259=CARTESIAN_POINT('Origin',(190.188986981021,-41.7544557100499,27.1574640861153));
#1260=CARTESIAN_POINT('Origin',(190.688986981021,-105.505393326966,27.1574640861153));
#1261=CARTESIAN_POINT('',(190.98898382361,-42.7544557100481,29.1348365584727));
#1262=CARTESIAN_POINT('Ctrl Pts',(190.760215341332,-41.7544557100499,29.1561953138414));
#1263=CARTESIAN_POINT('Ctrl Pts',(190.911622336065,-42.0680546495461,29.1507996549229));
#1264=CARTESIAN_POINT('Ctrl Pts',(190.98898382361,-42.4193738074447,29.1348365584727));
#1265=CARTESIAN_POINT('Ctrl Pts',(190.98898382361,-42.7544557100481,29.1348365584727));
#1266=CARTESIAN_POINT('Ctrl Pts',(190.98898382361,-42.7544557100481,29.1348365584727));
#1267=CARTESIAN_POINT('Ctrl Pts',(190.98898382361,-43.0944452789532,29.1348365584727));
#1268=CARTESIAN_POINT('Ctrl Pts',(190.909231414076,-43.4510968499278,29.1513960660176));
#1269=CARTESIAN_POINT('Ctrl Pts',(190.733216736061,-43.8095543740976,29.1570781102117));
#1270=CARTESIAN_POINT('Ctrl Pts',(190.711685643046,-43.8502614454299,29.1574640861153));
#1271=CARTESIAN_POINT('Ctrl Pts',(190.688986981021,-43.8902318192989,29.1574640861153));
#1272=CARTESIAN_POINT('',(192.688986981021,-105.505393326966,27.1574640861153));
#1273=CARTESIAN_POINT('Origin',(100.188986981021,-41.7544557100499,26.1574640861153));
#1274=CARTESIAN_POINT('',(100.188986981021,-39.2544557100499,26.1574640861153));
#1275=CARTESIAN_POINT('',(100.188986981021,-39.2544557100499,26.1574640861153));
#1276=CARTESIAN_POINT('',(97.6889869810208,-41.7544557100499,26.1574640861153));
#1277=CARTESIAN_POINT('Origin',(100.188986981021,-41.7544557100499,26.1574640861153));
#1278=CARTESIAN_POINT('',(97.6889869810208,-41.7544557100499,26.1574640861153));
#1279=CARTESIAN_POINT('Origin',(192.688986981021,-39.2544557100499,26.1574640861153));
#1280=CARTESIAN_POINT('',(190.188986981021,-39.2544557100499,26.1574640861153));
#1281=CARTESIAN_POINT('',(190.188986981021,-39.2544557100499,26.1574640861153));
#1282=CARTESIAN_POINT('',(97.6889869810208,-39.2544557100499,26.1574640861153));
#1283=CARTESIAN_POINT('Origin',(190.188986981021,-41.7544557100499,26.1574640861153));
#1284=CARTESIAN_POINT('',(192.688986981021,-41.7544557100499,26.1574640861153));
#1285=CARTESIAN_POINT('',(192.688986981021,-41.7544557100499,26.1574640861153));
#1286=CARTESIAN_POINT('Origin',(190.188986981021,-41.7544557100499,26.1574640861153));
#1287=CARTESIAN_POINT('Origin',(101.688986981021,-123.589039199272,26.1574640861153));
#1288=CARTESIAN_POINT('',(103.988986981021,-123.589039199272,29.1574640861153));
#1289=CARTESIAN_POINT('Origin',(101.688986981021,-123.589039199272,29.1574640861153));
#1290=CARTESIAN_POINT('',(103.988986981021,-123.589039199272,26.1574640861153));
#1291=CARTESIAN_POINT('',(103.988986981021,-123.589039199272,26.1574640861153));
#1292=CARTESIAN_POINT('Origin',(101.688986981021,-123.589039199272,26.1574640861153));
#1293=CARTESIAN_POINT('Origin',(101.688986981021,-123.589039199272,29.1574640861153));
#1294=CARTESIAN_POINT('Origin',(101.688986981021,-123.589039199272,29.1574640861153));
#1295=CARTESIAN_POINT('Origin',(188.688986981021,-123.589039199272,26.1574640861153));
#1296=CARTESIAN_POINT('Origin',(188.688986981021,-123.589039199272,29.1574640861153));
#1297=CARTESIAN_POINT('',(190.988986981021,-123.589039199272,26.1574640861153));
#1298=CARTESIAN_POINT('',(190.988986981021,-123.589039199272,26.1574640861153));
#1299=CARTESIAN_POINT('Origin',(188.688986981021,-123.589039199272,26.1574640861153));
#1300=CARTESIAN_POINT('Origin',(188.688986981021,-123.589039199272,29.1574640861153));
#1301=CARTESIAN_POINT('Origin',(188.68898382361,-42.7544557100481,26.1574640861153));
#1302=CARTESIAN_POINT('Origin',(188.68898382361,-42.7544557100481,29.1574640861153));
#1303=CARTESIAN_POINT('Origin',(188.68898382361,-42.7544557100481,29.1574640861153));
#1304=CARTESIAN_POINT('',(190.98898382361,-42.7544557100481,26.1574640861153));
#1305=CARTESIAN_POINT('',(190.98898382361,-42.7544557100481,26.1574640861153));
#1306=CARTESIAN_POINT('Origin',(188.68898382361,-42.7544557100481,26.1574640861153));
#1307=CARTESIAN_POINT('Origin',(145.188986981021,-83.4217474546609,29.1574640861153));
#1308=CARTESIAN_POINT('Origin',(145.188986981021,-83.4217474546609,29.1574640861153));
#1309=CARTESIAN_POINT('Origin',(101.688986981016,-42.754455710051,29.1574640861153));
#1310=CARTESIAN_POINT('Origin',(145.188986981021,-83.4217474546609,29.1574640861153));
#1311=CARTESIAN_POINT('Origin',(145.188986981021,-83.4217474546609,29.1574640861153));
#1312=CARTESIAN_POINT('',(103.988986981016,-42.754455710051,29.1574640861153));
#1313=CARTESIAN_POINT('Origin',(101.688986981016,-42.754455710051,29.1574640861153));
#1314=CARTESIAN_POINT('Origin',(101.688986981016,-42.754455710051,29.1574640861153));
#1315=CARTESIAN_POINT('',(173.957113640889,-97.8929057924483,29.1574640861153));
#1316=CARTESIAN_POINT('',(116.257099547589,-97.8929057924483,29.1574640861153));
#1317=CARTESIAN_POINT('',(173.957113640889,-97.8929057924483,29.1574640861153));
#1318=CARTESIAN_POINT('',(116.257099547589,-59.2429238860329,29.1574640861153));
#1319=CARTESIAN_POINT('',(116.257099547589,-97.8929057924483,29.1574640861153));
#1320=CARTESIAN_POINT('',(173.957113640889,-59.2429238860329,29.1574640861153));
#1321=CARTESIAN_POINT('',(116.257099547589,-59.2429238860329,29.1574640861153));
#1322=CARTESIAN_POINT('',(173.957113640889,-59.2429238860329,29.1574640861153));
#1323=CARTESIAN_POINT('Origin',(145.188986981021,-83.4217474546609,26.1574640861153));
#1324=CARTESIAN_POINT('',(192.688986981021,-125.089039199272,26.1574640861153));
#1325=CARTESIAN_POINT('',(192.688986981021,-39.2544557100499,26.1574640861153));
#1326=CARTESIAN_POINT('',(190.188986981021,-127.589039199272,26.1574640861153));
#1327=CARTESIAN_POINT('Origin',(190.188986981021,-125.089039199272,26.1574640861153));
#1328=CARTESIAN_POINT('',(100.188986981021,-127.589039199272,26.1574640861153));
#1329=CARTESIAN_POINT('',(192.688986981021,-127.589039199272,26.1574640861153));
#1330=CARTESIAN_POINT('',(97.6889869810208,-125.089039199272,26.1574640861153));
#1331=CARTESIAN_POINT('Origin',(100.188986981021,-125.089039199272,26.1574640861153));
#1332=CARTESIAN_POINT('',(97.6889869810208,-127.589039199272,26.1574640861153));
#1333=CARTESIAN_POINT('',(103.988986981016,-42.754455710051,26.1574640861153));
#1334=CARTESIAN_POINT('Origin',(101.688986981016,-42.754455710051,26.1574640861153));
#1335=CARTESIAN_POINT('',(173.957113640889,-97.8929057924483,26.1574640861153));
#1336=CARTESIAN_POINT('',(116.257099547589,-97.8929057924483,26.1574640861153));
#1337=CARTESIAN_POINT('',(173.957113640889,-97.8929057924483,26.1574640861153));
#1338=CARTESIAN_POINT('',(173.957113640889,-59.2429238860329,26.1574640861153));
#1339=CARTESIAN_POINT('',(173.957113640889,-59.2429238860329,26.1574640861153));
#1340=CARTESIAN_POINT('',(116.257099547589,-59.2429238860329,26.1574640861153));
#1341=CARTESIAN_POINT('',(116.257099547589,-59.2429238860329,26.1574640861153));
#1342=CARTESIAN_POINT('',(116.257099547589,-97.8929057924483,26.1574640861153));
#1343=CARTESIAN_POINT('Origin',(97.6889869810208,-39.2544557100499,26.1574640861153));
#1344=CARTESIAN_POINT('',(97.6889869810208,-125.089039199272,26.1574640861153));
#1345=CARTESIAN_POINT('Origin',(100.188986981021,-125.089039199272,26.1574640861153));
#1346=CARTESIAN_POINT('',(100.188986981021,-127.589039199272,26.1574640861153));
#1347=CARTESIAN_POINT('Origin',(97.6889869810208,-127.589039199272,26.1574640861153));
#1348=CARTESIAN_POINT('',(190.188986981021,-127.589039199272,26.1574640861153));
#1349=CARTESIAN_POINT('Origin',(190.188986981021,-125.089039199272,26.1574640861153));
#1350=CARTESIAN_POINT('',(192.688986981021,-125.089039199272,26.1574640861153));
#1351=CARTESIAN_POINT('Origin',(173.957113640889,-59.2429238860329,26.1574640861153));
#1352=CARTESIAN_POINT('',(173.957113640889,-97.8929057924483,26.1574640861153));
#1353=CARTESIAN_POINT('',(173.957113640889,-59.2429238860329,26.1574640861153));
#1354=CARTESIAN_POINT('Origin',(116.257099547589,-59.2429238860329,26.1574640861153));
#1355=CARTESIAN_POINT('',(116.257099547589,-59.2429238860329,26.1574640861153));
#1356=CARTESIAN_POINT('Origin',(116.257099547589,-97.8929057924483,26.1574640861153));
#1357=CARTESIAN_POINT('',(116.257099547589,-97.8929057924483,26.1574640861153));
#1358=CARTESIAN_POINT('Origin',(173.957113640889,-97.8929057924483,26.1574640861153));
#1359=CARTESIAN_POINT('Origin',(101.688986981016,-42.754455710051,26.1574640861153));
#1360=CARTESIAN_POINT('',(103.988986981016,-42.754455710051,26.1574640861153));
#1361=CARTESIAN_POINT('Origin',(192.688986981021,-127.589039199272,26.1574640861153));
#1362=CARTESIAN_POINT('Origin',(145.188986981021,-83.4217474546609,29.1574640861153));
#1363=UNCERTAINTY_MEASURE_WITH_UNIT(LENGTH_MEASURE(0.01),#1367,
'DISTANCE_ACCURACY_VALUE',
'Maximum model space distance between geometric entities at asserted c
onnectivities');
#1364=UNCERTAINTY_MEASURE_WITH_UNIT(LENGTH_MEASURE(0.01),#1367,
'DISTANCE_ACCURACY_VALUE',
'Maximum model space distance between geometric entities at asserted c
onnectivities');
#1365=(
GEOMETRIC_REPRESENTATION_CONTEXT(3)
GLOBAL_UNCERTAINTY_ASSIGNED_CONTEXT((#1363))
GLOBAL_UNIT_ASSIGNED_CONTEXT((#1367,#1369,#1370))
REPRESENTATION_CONTEXT('','3D')
);
#1366=(
GEOMETRIC_REPRESENTATION_CONTEXT(3)
GLOBAL_UNCERTAINTY_ASSIGNED_CONTEXT((#1364))
GLOBAL_UNIT_ASSIGNED_CONTEXT((#1367,#1369,#1370))
REPRESENTATION_CONTEXT('','3D')
);
#1367=(
LENGTH_UNIT()
NAMED_UNIT(*)
SI_UNIT(.MILLI.,.METRE.)
);
#1368=(
LENGTH_UNIT()
NAMED_UNIT(*)
SI_UNIT($,.METRE.)
);
#1369=(
NAMED_UNIT(*)
PLANE_ANGLE_UNIT()
SI_UNIT($,.RADIAN.)
);
#1370=(
NAMED_UNIT(*)
SI_UNIT($,.STERADIAN.)
SOLID_ANGLE_UNIT()
);
#1371=SHAPE_DEFINITION_REPRESENTATION(#1372,#1373);
#1372=PRODUCT_DEFINITION_SHAPE('',$,#1375);
#1373=SHAPE_REPRESENTATION('',(#716),#1365);
#1374=PRODUCT_DEFINITION_CONTEXT('part definition',#1379,'design');
#1375=PRODUCT_DEFINITION('2026-09-14-22-39-05-823','Pyae''s Alarm Cloc
k',#1376,#1374);
#1376=PRODUCT_DEFINITION_FORMATION('',$,#1381);
#1377=PRODUCT_RELATED_PRODUCT_CATEGORY('Pyae''s Alarm Clock',
'Pyae''s Alarm Clock',(#1381));
#1378=APPLICATION_PROTOCOL_DEFINITION('international standard',
'automotive_design',2009,#1379);
#1379=APPLICATION_CONTEXT(
'Core Data for Automotive Mechanical Design Process');
#1380=PRODUCT_CONTEXT('part definition',#1379,'mechanical');
#1381=PRODUCT('2026-09-14-22-39-05-823','Pyae''s Alarm Clock',
'KiCad electronic assembly',(#1380));
#1382=PRESENTATION_STYLE_ASSIGNMENT((#1383));
#1383=SURFACE_STYLE_USAGE(.BOTH.,#1384);
#1384=SURFACE_SIDE_STYLE('',(#1385));
#1385=SURFACE_STYLE_FILL_AREA(#1386);
#1386=FILL_AREA_STYLE('Steel - Satin',(#1387));
#1387=FILL_AREA_STYLE_COLOUR('Steel - Satin',#1388);
#1388=COLOUR_RGB('Steel - Satin',0.627450980392157,0.627450980392157,0.627450980392157);
ENDSEC;
END-ISO-10303-21;
